<?xml version="1.0" encoding="UTF-8" standalone="no"?>
<!-- Created with Inkscape (http://www.inkscape.org/) -->

<svg
   xmlns:dc="http://purl.org/dc/elements/1.1/"
   xmlns:cc="http://creativecommons.org/ns#"
   xmlns:rdf="http://www.w3.org/1999/02/22-rdf-syntax-ns#"
   xmlns:svg="http://www.w3.org/2000/svg"
   xmlns="http://www.w3.org/2000/svg"
   xmlns:sodipodi="http://sodipodi.sourceforge.net/DTD/sodipodi-0.dtd"
   xmlns:inkscape="http://www.inkscape.org/namespaces/inkscape"
   id="svg2"
   version="1.1"
   inkscape:version="0.48.4 r9939"
   width="575.11932"
   height="721.56909"
   sodipodi:docname="mate.png">
  <metadata
     id="metadata8">
    <rdf:RDF>
      <cc:Work
         rdf:about="">
        <dc:format>image/svg+xml</dc:format>
        <dc:type
           rdf:resource="http://purl.org/dc/dcmitype/StillImage" />
        <dc:title></dc:title>
      </cc:Work>
    </rdf:RDF>
  </metadata>
  <defs
     id="defs6" />
  <sodipodi:namedview
     pagecolor="#ffffff"
     bordercolor="#666666"
     borderopacity="1"
     objecttolerance="10"
     gridtolerance="10"
     guidetolerance="10"
     inkscape:pageopacity="0"
     inkscape:pageshadow="2"
     inkscape:window-width="1680"
     inkscape:window-height="1001"
     id="namedview4"
     showgrid="false"
     fit-margin-top="0"
     fit-margin-left="0"
     fit-margin-right="0"
     fit-margin-bottom="0"
     inkscape:zoom="0.94565217"
     inkscape:cx="281.9402"
     inkscape:cy="332.7223"
     inkscape:window-x="0"
     inkscape:window-y="0"
     inkscape:window-maximized="1"
     inkscape:current-layer="svg2" />
  <path
     style="fill:#000000"
     d="m 179.03232,721.17819 c -5.87853,0.66421 -7.62009,0.51254 -7.93651,-0.69113 -0.27523,-1.04697 -8.24173,-8.4471 -20.52062,-19.06174 -6.46122,-5.58548 -17.45717,-13.41442 -23.28912,-16.58149 -7.52895,-4.08862 -12.92534,-5.30852 -23.72171,-5.36249 -4.775833,-0.0239 -10.502753,-0.6853 -12.726483,-1.46983 -3.98722,-1.40669 -4.35846,-1.34365 -26.8363,4.55696 -12.53634,3.2904 -27.06257,7.66141 -32.28074,9.71232 -10.95525,4.3058 -12.05702,4.26441 -21.53963,-0.80921 l -5.7152502,-3.05792 -1.72741,-6.57105 C 0.43072683,673.06368 -0.64213317,652.4756 0.39854683,636.93822 2.4393768,606.46847 8.4424368,570.09609 14.613567,550.80985 c 1.91658,-5.98978 4.24594,-15.20126 5.17636,-20.46996 2.21247,-12.52851 3.58261,-19.26013 4.0767,-20.02921 0.86503,-1.34643 2.55442,-8.62768 2.56245,-11.04411 0.005,-1.40604 1.87394,-7.00179 4.15391,-12.43499 2.27997,-5.4332 5.16194,-12.62204 6.40437,-15.97519 l 2.25897,-6.09665 15.134,-3.39557 c 13.18142,-2.95748 43.12427,-6.90529 48.171643,-6.35118 0.93356,0.10249 1.86442,-0.36046 2.0686,-1.02876 0.20418,-0.66831 -0.55962,-7.28861 -1.69732,-14.71178 -1.13771,-7.42317 -1.96439,-13.83765 -1.83708,-14.25438 0.12732,-0.41674 -0.16931,-4.36737 -0.65916,-8.77918 -0.838433,-7.55099 -1.743973,-13.16889 -6.393073,-39.66223 -1.04933,-5.97971 -2.09411,-13.38233 -2.32173,-16.45027 -0.88611,-11.94304 -13.03208,-62.97244 -20.61363,-86.60493 -3.65983,-11.40805 -6.24304,-17.57013 -11.32243,-27.00886 -11.03556,-20.50671 -11.41617,-26.98421 -1.73507,-29.52919 4.80726,-1.26374 21.74297,-1.19451 26.47486,0.10823 l 3.06528,0.8439 9.02567,34.36903 c 7.348193,27.98 9.514933,37.70017 11.656603,52.28898 1.44687,9.85601 3.48194,22.81441 4.52236,28.79646 3.3029,18.99035 5.14071,31.47649 5.93404,40.31609 1.22432,13.6419 3.63864,36.40338 4.32131,40.74004 0.55698,3.53821 1.54533,12.00724 3.62933,31.09917 1.13265,10.3765 1.03318,10.23796 7.47036,10.40437 3.15862,0.0817 10.2678,0.13308 15.79818,0.11429 6.40035,-0.0217 16.38962,1.18719 27.48218,3.32598 9.58481,1.84808 17.71025,3.5529 18.05652,3.78848 0.34628,0.23558 4.96958,1.89297 10.27401,3.6831 5.30442,1.79011 12.4712,4.7633 15.92617,6.60708 l 6.28176,3.35232 7.6093,24.42924 c 6.59489,21.17251 7.74494,25.76356 8.62678,34.43833 0.55962,5.505 1.62222,13.33979 2.36133,17.41064 0.73911,4.07086 1.55069,9.90627 1.80349,12.96759 0.25281,3.06132 1.15888,11.89627 2.0135,19.63322 2.06226,18.66983 2.50352,36.44603 1.51206,60.91373 -0.44945,11.09184 -0.6509,20.79955 -0.44766,21.57268 0.57141,2.17365 -3.09924,2.65726 -16.11079,2.12258 -11.431,-0.46974 -31.78928,0.0895 -32.17792,0.88396 -0.10305,0.21065 -0.6908,8.87095 -1.3061,19.24511 -0.6153,10.37416 -1.21569,20.18674 -1.33421,21.80575 -0.14582,1.99208 -0.88524,3.11971 -2.2874,3.48831 -1.13956,0.29957 -5.24569,1.57093 -9.12474,2.82524 -3.87905,1.25432 -8.40842,2.43373 -10.06526,2.62095 z m 6.43667,-11.14086 c 0.98226,-6.83594 1.48939,-15.21619 1.54188,-25.47925 0.23298,-45.54619 -0.64172,-69.33253 -3.12567,-84.99834 -1.66109,-10.47621 -1.45426,-13.36407 0.86039,-12.01306 2.81805,1.64484 5.46891,78.52272 4.07228,118.10029 -0.12873,3.64804 -0.1889,6.80456 -0.13372,7.01449 0.0552,0.20993 2.00601,-0.11927 4.33514,-0.73155 4.75707,-1.25055 5.18879,-2.35956 4.70827,-12.09447 -0.13856,-2.80701 0.0862,-12.40453 0.49952,-21.32782 0.41329,-8.9233 0.57749,-18.97018 0.36489,-22.32641 -0.2126,-3.35624 -0.61586,-11.39279 -0.89613,-17.85901 -1.51801,-35.02196 -3.66296,-49.33216 -8.68529,-57.94426 -4.22001,-7.23631 -12.70554,-4.90652 -13.78481,3.78478 -0.30173,2.42979 -0.36075,5.13237 -0.13116,6.00572 0.22959,0.87335 0.37052,3.9676 0.31318,6.87609 -0.0573,2.90849 -0.15029,14.14076 -0.20657,24.96061 -0.0563,10.81984 -0.23838,23.49863 -0.40467,28.17509 -0.16628,4.67645 -0.0614,9.41898 0.23297,10.53895 0.29442,1.11997 0.21444,6.19107 -0.17774,11.26911 -0.39218,5.07803 -0.67852,12.94603 -0.6363,17.48443 0.0422,4.5384 -0.0923,11.92608 -0.2989,16.41707 -0.2066,4.49099 -0.27372,8.55317 -0.14914,9.02705 0.12457,0.47389 2.11995,0.54196 4.43417,0.15128 2.31422,-0.39067 4.76583,-0.77576 5.44803,-0.85574 0.6822,-0.08 1.50092,-1.95876 1.81938,-4.17505 z m -14.10485,-14.23584 c 0.0415,-7.62898 0.21602,-16.93219 0.38784,-20.67383 0.59072,-12.86369 0.43679,-37.88121 -0.33344,-54.19609 -0.4243,-8.98744 -0.73168,-17.16553 -0.68305,-18.17351 0.19888,-4.12276 -1.18168,-1.10451 -2.09519,4.58062 -0.73702,4.58676 -1.32678,5.89423 -2.3811,5.27884 -2.11629,-1.23523 -2.74098,-0.72841 -2.54996,2.06888 0.0954,1.39664 0.54827,2.44081 1.00643,2.32037 1.47947,-0.38893 1.97884,3.88996 1.81471,15.54957 -0.0884,6.27879 -0.15169,13.04213 -0.14071,15.02964 0.0252,4.55365 -1.56845,17.17605 -2.34549,18.57765 -1.00438,1.81163 -0.93345,-7.02265 0.10842,-13.50661 0.90577,-5.63694 1.25583,-24.60307 0.5067,-27.45277 -0.20523,-0.7807 -0.77052,-0.47958 -1.66079,0.88472 -1.72459,2.64284 -3.21625,1.83126 -2.26458,-1.23209 0.40012,-1.28796 1.11353,-5.81657 1.58537,-10.06359 0.8108,-7.29798 1.85811,-10.71801 1.72176,-5.6225 -0.1135,4.24162 2.84727,-5.28409 5.56248,-17.8962 2.96812,-13.78691 4.63383,-17.0464 9.79717,-19.17122 5.15569,-2.12167 7.74034,-1.16074 11.61004,4.31639 3.34522,4.73477 5.51074,12.3417 8.44851,29.67746 0.44122,2.60361 1.10621,4.41413 1.47771,4.02337 0.37152,-0.39077 0.56178,1.0564 0.42278,3.21592 -0.13899,2.15953 -0.14117,5.49401 -0.005,7.40995 0.23462,3.29776 0.37966,3.12177 2.7197,-3.2999 1.35953,-3.73089 2.78229,-7.33033 3.1617,-7.99876 1.32559,-2.3354 -1.27701,11.17505 -3.16054,16.40678 -1.5885,4.41226 -2.58565,18.63136 -1.09149,15.56436 0.26676,-0.54755 2.34033,-6.02276 4.60793,-12.16714 2.26761,-6.14437 4.36245,-11.03177 4.6552,-10.8609 0.99187,0.57894 -2.51696,13.21389 -5.98873,21.56481 -2.10141,5.05466 -3.39205,10.01857 -3.29615,12.6773 0.0867,2.40334 0.2881,4.44589 0.44761,4.53899 0.15952,0.0931 1.21851,-0.35351 2.3533,-0.99254 1.28969,-0.72623 1.58037,-1.30937 0.77528,-1.55533 -0.8466,-0.25866 -0.21764,-2.58944 1.83534,-6.80138 1.71783,-3.52433 5.50798,-13.31616 8.42254,-21.75961 6.0256,-17.45609 6.04266,-17.49597 5.97984,-13.97971 -0.18505,10.3593 -5.8278,29.01246 -11.31599,37.40719 -1.76637,2.70184 -2.41226,4.45883 -1.55641,4.23385 0.80462,-0.21152 1.96619,-1.42362 2.58126,-2.69355 1.64572,-3.39795 2.63922,-2.43853 3.02802,2.92419 0.42183,5.81833 -0.0873,7.03564 -1.18936,2.84354 l -0.82285,-3.13009 -3.28378,4.8128 c -3.14814,4.614 -3.40012,6.39434 -0.80858,5.71307 0.66381,-0.1745 1.36523,-1.63844 1.55872,-3.25319 l 0.35178,-2.93591 1.01392,3.43853 c 0.60384,2.04764 1.50457,3.31617 2.22686,3.136 0.6672,-0.16609 2.66773,-0.35476 4.44581,-0.41857 3.1696,-0.11374 3.24466,-0.23236 3.8351,-6.06082 0.33122,-3.26965 0.47304,-6.43623 0.31514,-7.03686 -0.15789,-0.60062 0.0317,-0.90598 0.42135,-0.67855 0.38963,0.22742 0.72639,3.2784 0.74835,6.77995 0.022,3.50156 0.0787,6.51394 0.12608,6.6942 0.23204,0.88269 10.85675,0.8737 11.28459,-0.01 0.27154,-0.56056 1.52891,-3.73412 2.79417,-7.05234 1.26526,-3.31821 2.47397,-6.07873 2.68603,-6.13448 0.63648,-0.16732 -0.93399,7.8175 -2.11612,10.75909 -1.25073,3.11225 -0.45567,4.39265 2.28089,3.67327 1.03246,-0.27142 1.98802,-0.0719 2.12346,0.44331 0.13545,0.51522 0.83323,0.51465 1.55063,-10e-4 0.7174,-0.51594 1.18333,-1.39848 1.0354,-1.96121 -0.14793,-0.56273 0.16801,-4.66728 0.70209,-9.12123 0.53409,-4.45395 1.14457,-14.65775 1.35663,-22.67511 0.4498,-17.0064 -2.22819,-49.73568 -4.24022,-51.82201 -1.02516,-1.06302 -1.36122,0.0593 -1.51929,5.07422 -0.11162,3.54155 -0.51603,6.52147 -0.89866,6.62206 -1.58857,0.41761 -2.30464,-1.59048 -1.63464,-4.58405 1.0499,-4.69097 1.24983,-17.19716 0.45067,-28.19194 -0.38532,-5.30123 -0.62203,-11.24604 -0.52604,-13.21067 0.27017,-5.52918 -2.80742,-21.06822 -4.10511,-20.72708 -0.59156,0.15551 -0.65343,0.86971 -0.1375,1.58711 0.51594,0.7174 0.45632,1.43101 -0.13256,1.58581 -0.58884,0.1548 -1.24222,-0.37137 -1.45197,-1.16926 -0.25523,-0.97088 -1.35229,-1.19547 -3.31681,-0.67904 -2.66215,0.69983 -2.78775,0.93072 -1.34898,2.4799 0.87255,0.93952 1.52918,2.2791 1.45916,2.97683 -0.07,0.69774 -0.90123,0.22079 -1.84714,-1.05984 -1.48805,-2.01464 -4.91677,-3.68172 -6.64038,-3.22862 -0.30093,0.0791 -0.32508,0.98858 -0.0537,2.02104 0.71601,2.72368 -0.851,3.8391 -1.89746,1.35065 -1.28183,-3.04816 -5.61715,-2.44959 -4.84104,0.66838 0.54047,2.17122 0.50399,2.19253 -1.02854,0.60079 -0.87386,-0.90765 -1.65366,-1.71173 -1.73288,-1.78686 -0.0792,-0.0751 -1.41164,-0.12243 -2.96095,-0.10514 -2.77677,0.031 -2.79032,0.071 -0.95078,2.80361 2.63901,3.92024 1.55953,4.77051 -1.3034,1.02666 -1.99235,-2.60539 -2.85113,-2.98117 -5.32612,-2.33054 -2.68128,0.70486 -2.87667,1.06312 -2.13929,3.9228 0.6158,2.38813 0.49341,2.85668 -0.50741,1.94285 -0.72539,-0.66234 -1.58298,-2.18173 -1.90575,-3.37643 -0.45106,-1.66943 -1.14645,-2.02507 -3.0047,-1.53656 -2.07532,0.54556 -2.3026,1.07404 -1.60427,3.73045 0.92909,3.53427 -0.88467,3.07309 -2.39926,-0.61005 -0.72154,-1.75459 -1.63842,-2.23531 -3.69938,-1.93961 -2.1839,0.31334 -2.6365,0.78718 -2.22971,2.33458 0.2807,1.06779 0.11441,2.35791 -0.36954,2.86693 -0.55133,0.57989 -1.03304,0.0536 -1.29001,-1.40931 -0.68805,-3.91722 -1.02293,-4.12016 -2.69833,-1.63504 -1.43898,2.13447 -1.59539,2.19411 -1.44284,0.55009 0.1254,-1.35152 -0.49207,-1.83642 -2.31131,-1.81618 -3.18078,0.0355 -4.33383,1.28297 -3.65225,3.95137 0.29864,1.16747 0.25427,2.89651 -0.0977,3.84206 -0.46918,1.2605 -0.79541,0.48275 -1.22271,-2.91507 -0.57558,-4.57704 -0.62105,-4.62997 -3.68348,-4.2876 -2.10799,0.23568 -3.29133,0.92086 -3.69612,2.14019 -0.53273,1.60465 -0.58808,1.61178 -0.52565,0.0676 0.0464,-1.14672 -0.68791,-1.72969 -2.18805,-1.73713 -4.07343,-0.0202 -4.57335,0.5232 -3.93665,4.27929 l 0.62924,3.712 -2.281,-3.75112 c -2.47345,-4.06762 -4.47725,-5.29018 -5.1361,-3.13364 -0.30556,1.00016 -0.67974,0.99624 -1.40678,-0.0147 -1.40182,-1.94922 -3.63033,-1.07597 -5.34036,2.09267 l -1.4631,2.71107 0.3106,-2.95595 c 0.27408,-2.60822 0.0311,-2.98424 -2.06519,-3.19645 -6.0264,-0.61002 -7.08662,-0.46081 -6.71698,0.9453 0.20205,0.76861 -0.14282,2.11058 -0.76638,2.98216 -0.97637,1.36473 -1.15888,1.16389 -1.31485,-1.44689 -0.23728,-3.97189 -3.08049,-4.50211 -4.54199,-0.84702 l -1.02016,2.55131 -0.0917,-2.72001 c -0.0795,-2.35966 -0.53129,-2.75451 -3.40995,-2.98056 -2.51865,-0.19778 -3.60043,0.12496 -4.48919,1.33928 -0.98412,1.34464 -1.14089,1.305 -0.98274,-0.24853 0.28767,-2.82562 -4.69461,-2.49719 -5.93955,0.39153 -0.87835,2.03812 -0.94665,1.99913 -1.03578,-0.59133 -0.0811,-2.35649 -0.48913,-2.76896 -2.7147,-2.74412 -1.44062,0.0161 -3.06083,0.49365 -3.60049,1.06126 -0.62435,0.65669 -0.83698,0.55997 -0.58464,-0.26595 0.51622,-1.6897 -1.97769,-1.04294 -3.04777,0.79034 -0.612193,1.04884 -0.816253,0.89108 -0.818213,-0.63262 -0.004,-3.07088 -3.41831,-4.3436 -5.5581,-2.07181 -1.50789,1.6009 -1.66617,1.56306 -1.66869,-0.39903 -0.002,-1.19224 -0.41157,-2.1184 -0.91118,-2.05815 -0.49962,0.0602 -1.47427,0.16934 -2.16591,0.24242 -0.69165,0.0731 -1.92176,0.70363 -2.73358,1.40122 -1.1531,0.99086 -1.58728,0.84516 -1.98452,-0.66593 -0.60039,-2.28389 -4.43072,-3.44482 -6.85735,-2.07839 -1.02091,0.57488 -1.56944,0.5015 -1.36062,-0.18195 0.45236,-1.48067 -2.14175,-2.29083 -4.99671,-1.56053 -1.23026,0.31514 -2.09866,0.11933 -1.92954,-0.43423 0.36911,-1.20814 -2.75674,-1.70271 -3.80346,-0.60178 -0.40528,0.42639 -0.91123,0.11199 -1.12431,-0.69858 -0.48976,-1.86302 -4.5231,-2.9641 -5.01076,-1.3679 -0.18943,0.62002 -1.084,1.30693 -1.98792,1.52648 -1.49041,0.36202 -1.5131,0.23285 -0.24344,-1.38634 1.33487,-1.70233 1.28207,-1.82909 -1.13385,-2.72179 -1.97751,-0.7307 -2.91663,-0.58228 -4.27671,0.67591 -1.53536,1.42036 -1.64095,1.39171 -0.88722,-0.24087 1.11335,-2.41153 -0.88219,-3.09192 -3.08041,-1.05033 -2.35649,2.18852 -2.82402,2.08619 -2.03745,-0.44597 0.61391,-1.9763 0.16409,-2.55844 -3.73573,-4.83468 -2.43852,-1.42331 -4.83746,-2.16314 -5.33096,-1.64407 -0.49352,0.51908 -3.38846,9.59743 -6.43319,20.17411 l -5.53588,19.23033 2.36666,9.20062 c 2.72422,10.59025 2.61714,13.773 -1.47354,43.81437 -3.50241,25.72123 -5.41296,86.84027 -2.62284,83.90562 0.44529,-0.46836 10.15526,-3.50702 21.57771,-6.75255 l 20.76807,-5.90098 3.93636,-5.28023 c 2.16501,-2.90414 3.79397,-6.01011 3.61992,-6.90217 -0.17402,-0.89208 -0.24725,-2.33807 -0.16269,-3.21333 0.0846,-0.87526 0.0786,-4.70151 -0.0132,-8.50277 -0.26449,-10.94921 0.77166,-17.79125 4.02092,-26.55134 1.66334,-4.48443 3.19758,-8.19907 3.40942,-8.25476 0.21186,-0.0557 -0.66001,4.47743 -1.93746,10.0736 -2.29631,10.05952 -3.49925,23.99235 -2.6973,31.24112 0.37889,3.42489 0.80789,3.9189 5.10773,5.88181 l 4.69409,2.14289 -0.3426,-3.28681 c -0.18842,-1.80776 -0.64798,-5.53299 -1.02122,-8.27831 -1.68389,-12.38549 -0.19576,-23.59928 3.98119,-30.00022 1.10748,-1.69717 1.08968,-0.37403 -0.074,5.4908 -2.37754,11.98319 -1.56539,35.78247 1.29079,37.82587 1.19896,0.85777 9.45954,2.99288 10.51041,2.71663 0.141003,-0.0371 -0.57215,-2.17255 -1.58482,-4.74553 -3.42458,-8.7013 -4.05481,-28.79012 -1.03488,-32.98721 1.04592,-1.45361 1.20024,-1.46954 1.02874,-0.10614 -1.22999,9.77837 0.24978,27.40314 2.838613,33.80931 1.60882,3.98107 2.2556,4.62396 4.81597,4.78704 1.62667,0.1036 3.0714,-0.007 3.21049,-0.24495 0.13911,-0.23832 -0.39672,-4.85069 -1.19071,-10.24969 -2.07827,-14.13171 -1.90217,-22.14655 0.65819,-29.95826 1.23613,-3.77142 2.48059,-6.72108 2.76547,-6.55481 0.28488,0.16628 0.24929,2.82628 -0.0791,5.91111 -0.61278,5.75629 0.0682,28.78579 1.10399,37.33334 0.60693,5.00865 0.99089,5.27817 7.48167,5.25195 0.5258,-0.002 0.71635,-4.82639 0.42342,-10.7206 -0.73118,-14.71276 -0.61602,-18.41247 0.70947,-22.7921 1.61265,-5.32847 2.28527,-4.18502 1.71012,2.90716 -0.39311,4.84727 0.12195,27.82523 0.67047,29.91181 0.27085,1.03031 3.5558,-0.52203 5.00433,-2.36484 2.0135,-2.56158 5.85729,-3.51649 6.36597,-1.58148 0.72816,2.76992 0.50145,10.6931 -0.33102,11.56869 -0.79471,0.83588 -1.59003,-4.61313 -1.19651,-8.19774 0.0919,-0.83681 -0.25569,-1.41033 -0.77236,-1.27451 -0.51665,0.13582 -1.17991,2.05502 -1.47391,4.26488 -0.49955,3.75484 -0.58551,3.84913 -1.3127,1.44009 -0.98243,-3.25459 -2.08519,-3.59806 -3.99722,-1.24499 -0.82932,1.02061 -1.08464,1.7444 -0.56737,1.60842 0.51726,-0.13597 4.54613,2.46875 8.95305,5.78827 4.40692,3.31953 8.89221,6.44436 9.9673,6.94406 1.0751,0.49972 4.97723,3.15971 8.67139,5.91112 5.80207,4.32136 8.63963,6.98668 16.39386,15.39874 1.98262,2.15081 2.15981,0.94619 2.2481,-15.28454 z m 62.34647,-34.37666 c 0.21711,-6.399 -0.78131,-16.84685 -1.90366,-19.92059 -0.71049,-1.9458 -0.89935,-3.64099 -0.41961,-3.7671 1.73619,-0.45641 4.23467,15.72987 3.22092,20.86678 -0.53264,2.69911 -0.93659,3.96852 -0.89765,2.82091 z m -87.806,22.04859 c -0.15744,-0.5273 -0.38498,-4.65508 -0.50574,-9.17283 -0.12075,-4.51775 -0.36033,-9.92152 -0.53239,-12.00837 -0.31151,-3.77796 -0.32225,-3.78659 -2.49995,-2.00898 -1.23408,1.00736 -2.13882,2.93436 -2.07631,4.42234 0.23669,5.63409 -0.0886,13.10076 -0.6416,14.72556 -0.9126,2.6815 -1.89495,-2.18697 -1.6672,-8.26251 0.21536,-5.74495 0.25607,-5.6657 -2.74735,-5.34728 -1.197,0.12689 -2.42573,0.0852 -2.73051,-0.0927 -1.62319,-0.94742 -1.17921,-29.9178 0.48533,-31.66856 0.88941,-0.93548 0.95942,0.25228 0.96474,16.36588 0.002,6.25501 0.1013,11.74651 0.22052,12.20334 0.31015,1.18766 4.6445,-1.3819 6.76986,-4.0133 1.40778,-1.74298 1.7285,-4.80373 1.47044,-14.03315 -0.32528,-11.63306 0.17524,-16.87472 1.77166,-18.55385 0.52168,-0.5487 0.69993,0.20764 0.4971,2.10927 -0.57873,5.42606 0.15263,20.17079 1.32795,26.77262 1.41221,7.93249 1.91118,22.4533 0.91172,26.533 -0.40265,1.64355 -0.86087,2.55685 -1.01828,2.02955 z m 13.33893,-5.57451 c -0.0348,-1.12823 -0.17717,-4.58046 -0.31649,-7.67162 -0.13931,-3.09115 -0.0193,-10.56734 0.26677,-16.61374 0.28604,-6.04641 0.44261,-12.5761 0.34795,-14.51044 l -0.17212,-3.51695 -2.10746,2.3375 c -1.57926,1.75164 -2.63585,2.21137 -4.21566,1.83424 -2.05347,-0.4902 -2.0992,-0.72717 -1.76215,-9.13178 0.19031,-4.74568 0.59551,-9.62468 0.90044,-10.84221 1.05532,-4.21385 2.1353,0.47354 2.04542,8.87774 -0.0467,4.3686 0.1216,8.06347 0.37404,8.21081 0.25243,0.14734 1.49842,-1.42367 2.76885,-3.49113 1.27043,-2.06745 2.73938,-3.62779 3.26434,-3.4674 1.49691,0.45732 1.72456,12.29915 0.46859,24.37452 -0.63009,6.05786 -1.06434,13.55202 -0.965,16.65368 0.0993,3.10166 -0.0478,6.39736 -0.32687,7.32376 -0.39399,1.3077 -0.5216,1.22564 -0.57065,-0.36698 z m -6.02706,0.55043 c -0.0955,-5.92976 -2.54647,-28.0442 -3.14704,-28.39474 -0.38392,-0.22409 -0.56457,0.10034 -0.40143,0.72089 0.16314,0.62059 -0.35621,1.29995 -1.1541,1.5097 -2.29686,0.6038 -2.43166,-2.3923 -0.18996,-4.22215 1.1189,-0.91335 2.2476,-2.89938 2.50821,-4.41341 0.33008,-1.91759 0.86183,-2.52632 1.75264,-2.00637 1.11086,0.64839 2.1203,9.70904 2.0433,18.34041 -0.10339,11.5882 -0.35228,17.30918 -0.81632,18.76332 -0.46005,1.44164 -0.56816,1.38758 -0.5953,-0.29765 z m 65.70078,-25.66137 c -0.53043,-4.28025 -0.92882,-5.1534 -2.42638,-5.3178 -1.4964,-0.16427 -1.32287,-1.00001 1.05276,-5.07008 1.56447,-2.68037 3.11331,-4.94406 3.44184,-5.03043 1.39319,-0.36624 1.20249,2.78673 -0.27396,4.53001 -1.12921,1.33328 -1.41957,3.79549 -0.97917,8.30318 0.75345,7.71193 0.0835,9.8366 -0.81509,2.58512 z m 7.20321,-8.49639 c -3.30961,-9.53265 -3.37576,-10.89833 -0.91504,-18.88801 3.07046,-9.96939 4.91594,-18.20995 5.72209,-25.55062 0.46664,-4.2492 1.09748,-7.58046 1.40186,-7.4028 0.80152,0.46783 0.13344,14.83537 -0.91301,19.63474 -1.15838,5.31266 -0.8753,6.14399 0.78745,2.31259 0.73402,-1.69137 1.65004,-3.15815 2.03558,-3.2595 0.81513,-0.21428 3.21514,11.20548 3.60372,17.14723 0.21942,3.35509 -0.12824,2.642 -1.9884,-4.07848 -1.77922,-6.42789 -2.43843,-7.82907 -3.12782,-6.64795 -0.515,0.88234 -0.15324,4.373 0.88148,8.50537 0.96519,3.85488 2.19279,9.2202 2.72792,11.92296 0.87711,4.42999 0.82509,4.64739 -0.52806,2.20677 -0.82555,-1.48904 -2.56034,-6.52761 -3.85508,-11.19682 -1.55557,-5.6098 -2.63999,-8.18873 -3.19701,-7.60284 -0.46363,0.48764 -0.41425,1.56378 0.10973,2.39143 0.61367,0.96932 0.0629,2.93186 -1.54781,5.51502 -2.47327,3.96657 -2.4761,4.07944 -0.25964,10.3752 1.23246,3.50075 2.22875,7.99669 2.21398,9.99098 -0.0239,3.23013 -0.36801,2.64332 -3.15194,-5.37527 z M 49.523417,678.88295 c -0.0621,-0.23612 2.40714,-3.67544 5.48714,-7.64293 10.12743,-13.04565 11.33919,-15.20158 9.40616,-16.73518 -1.55705,-1.2353 -2.13872,-0.77287 -7.01358,5.57587 -4.91367,6.39928 -9.75245,11.48172 -11.32482,11.89506 -0.35911,0.0944 2.63454,-4.06591 6.65253,-9.24515 4.018,-5.17924 8.1809,-10.60258 9.25086,-12.05188 1.37509,-1.86257 1.97061,-4.99255 2.0314,-10.67661 0.1182,-11.05339 3.46293,-25.50215 8.1905,-35.38181 2.46876,-5.15921 1.86138,-1.30288 -1.86875,11.86499 -3.48368,12.29783 -4.77636,21.82814 -4.26326,31.43082 0.3042,5.6929 0.52669,6.37062 2.32318,7.07633 3.32903,1.30774 2.91233,6.66669 -0.96704,12.43635 -5.91615,8.79889 -6.54536,6.27405 -0.69082,-2.77222 2.16351,-3.34301 2.45492,-4.50159 1.33401,-5.30352 -1.16233,-0.83157 -2.30102,0.25363 -6.00673,5.72453 -6.4912,9.58321 -12.04383,15.69576 -12.54078,13.80535 z m -9.10625,-11.04066 c -0.0542,-0.20611 2.29186,-3.22903 5.21342,-6.71758 8.32293,-9.93823 11.78332,-15.15821 11.29073,-17.03202 -0.37505,-1.4267 -1.13656,-0.90238 -4.36883,3.008 -5.25593,6.35859 -7.07851,5.93137 -2.23403,-0.52366 3.3328,-4.44078 4.51321,-8.95561 2.18119,-8.34256 -0.41861,0.11004 -3.57775,4.46477 -7.02033,9.67717 -6.33706,9.59495 -10.37175,14.18725 -11.75515,13.37978 -1.5655,-0.91375 0.55238,-4.4685 6.72209,-11.2827 3.4984,-3.86384 7.8618,-8.92069 9.69645,-11.23745 2.46835,-3.11697 3.69256,-4.00402 4.70802,-3.41132 1.01545,0.5927 1.35392,-1.67328 1.30169,-8.71437 -0.0812,-10.9516 1.72097,-20.60304 5.12078,-27.42367 l 2.37246,-4.75958 -2.19619,7.54262 c -2.89159,9.93092 -3.31558,13.38226 -3.36792,27.4151 -0.0338,9.05137 0.31806,12.23824 1.51262,13.70165 1.39672,1.71107 1.07294,2.56252 -3.15186,8.28868 -6.50899,8.82207 -15.58039,18.12374 -16.02514,16.43191 z M 234.87103,606.92358 c -0.42891,-0.40778 -0.0873,-2.24243 0.75919,-4.07699 0.84646,-1.83456 1.61682,-4.17027 1.71191,-5.19047 0.19464,-2.08832 1.59455,-2.78591 2.96876,-1.47937 0.50327,0.47848 0.30235,2.04349 -0.44648,3.4778 -0.74884,1.43429 -1.60902,3.71978 -1.9115,5.07884 -0.57709,2.59281 -1.76813,3.43925 -3.08188,2.19019 z M 39.004697,642.82855 c 0.30551,-1.27979 2.63398,-5.04159 5.17438,-8.35957 3.63075,-4.74206 4.3944,-6.42522 3.56952,-7.86751 -0.57716,-1.00916 -1.15903,-2.22776 -1.29305,-2.708 -0.13448,-0.48012 -2.12345,2.44126 -4.42099,6.49224 -2.29753,4.05097 -5.04003,7.91157 -6.09444,8.5791 -4.95486,3.13688 -3.4813,-2.42016 2.47255,-9.32443 9.0237,-10.46417 9.40055,-11.38215 9.26734,-22.57497 -0.12197,-10.24778 1.55326,-17.95947 5.14829,-23.69946 2.50429,-3.99847 2.5357,-2.80348 0.12292,4.67648 -1.12463,3.4865 -2.28882,8.08707 -2.58709,10.2235 -0.86292,6.18093 0.23466,28.7801 1.52928,31.48816 0.98739,2.06536 0.87423,2.43134 -0.6984,2.2587 -1.29605,-0.14228 -2.74954,1.12906 -4.69779,4.10911 -1.5516,2.37331 -3.99714,5.37676 -5.43454,6.67433 -2.57504,2.32454 -2.60529,2.32501 -2.05798,0.0323 z m 9.28949,-22.35861 c -0.44309,-0.59438 -0.5196,0.007 -0.17001,1.33716 0.34958,1.32982 0.71212,1.81613 0.80562,1.08069 0.0935,-0.73544 -0.19252,-1.82347 -0.63561,-2.41785 z m -15.39239,6.98419 c -0.0572,-0.21741 2.14055,-3.36209 4.88379,-6.98817 3.90413,-5.1606 4.84092,-7.15123 4.31206,-9.163 l -0.67564,-2.57012 -1.6569,2.54691 c -4.28787,6.59109 -6.08493,6.78239 -2.01166,0.21415 2.49616,-4.02513 4.34026,-8.07241 4.098,-8.99396 -0.5396,-2.05267 -1.43649,-1.87984 -3.61931,0.69745 -0.92123,1.08771 -2.79568,2.75846 -4.16544,3.71278 -2.14859,1.49696 -1.99978,0.95964 1.08408,-3.9143 3.55718,-5.62201 3.7831,-7.9038 0.47871,-4.83492 -1.09117,1.0134 -1.82752,1.25148 -1.98757,0.64265 -0.13983,-0.53193 0.49372,-1.6618 1.4079,-2.51082 0.91419,-0.84903 1.45643,-2.32626 1.20498,-3.28275 -0.25144,-0.95649 -0.22085,-2.14394 0.068,-2.6388 0.28884,-0.49486 -0.45401,-4.91369 -1.65076,-9.81965 -1.19673,-4.90594 -2.37599,-11.19375 -2.62054,-13.9729 -0.36357,-4.13185 -0.10243,-5.08273 1.43245,-5.21612 1.03238,-0.0897 2.72133,-1.4643 3.75323,-3.0546 1.99826,-3.07969 1.87513,-1.73859 -0.35807,3.89971 -2.51985,6.36197 -3.39526,12.37499 -1.92646,13.2323 0.97626,0.56982 1.76548,-0.51385 2.89076,-3.96951 1.55283,-4.76856 5.25818,-11.41388 5.61257,-10.0658 0.10406,0.39583 -0.64496,3.03666 -1.66448,5.86849 -2.26699,6.29682 -3.73159,16.9139 -2.96136,21.46719 0.31368,1.8544 0.36652,3.72081 0.11743,4.1476 -0.68848,1.17955 0.61439,5.32061 1.59305,5.06333 0.47273,-0.12427 0.736,-1.93831 0.58505,-4.0312 -0.42036,-5.828 1.51952,-14.43975 4.5553,-20.22248 l 2.73935,-5.21811 -2.16607,11.42617 c -2.32792,12.27991 -2.68694,25.11459 -0.91057,32.55113 0.76733,3.21236 0.70012,4.72733 -0.22049,4.96934 -0.72839,0.19149 -1.44043,-0.0934 -1.58231,-0.63313 -0.14188,-0.5397 -2.24399,1.64112 -4.67137,4.84628 -4.00454,5.2877 -5.67771,6.91801 -5.96771,5.81486 z m -1.43884,-36.93928 c 1.63831,-3.01952 3.98954,-4.49 4.43992,-2.77676 0.3196,1.21572 -2.90448,4.95806 -4.67166,5.42262 -0.99609,0.26185 -0.92874,-0.50701 0.23174,-2.64586 z m -0.43296,-35.41546 c -0.86405,-0.82152 1.0797,-9.7109 2.19009,-10.01589 1.14085,-0.31335 1.34016,1.61786 0.58252,5.64412 -0.77605,4.1241 -1.62506,5.46279 -2.77261,4.37177 z m 2.44093,-15.94488 c -0.35692,-1.35769 2.59101,-10.33625 3.46951,-10.56719 1.33547,-0.35107 1.37003,0.43107 0.25472,5.76515 -0.54854,2.6234 -1.57301,4.92116 -2.27661,5.10613 -0.7036,0.18496 -1.35503,0.0481 -1.44762,-0.30409 z m 5.03792,-16.35022 c -0.64243,-2.28252 2.42005,-8.33198 3.63381,-7.17799 0.52282,0.49707 0.0224,2.68248 -1.11206,4.85644 -1.52002,2.91282 -2.18342,3.52356 -2.52175,2.32155 z m -20.36906,157.29149 c 0.15508,-4.73244 0.32265,-13.26802 0.3724,-18.96796 0.17484,-20.03439 0.92417,-29.94161 3.82999,-50.63769 2.6128,-18.60913 3.92966,-39.89723 2.85675,-46.18158 -0.96257,-5.63807 -1.08744,-5.85794 -2.07575,-3.65459 -0.57835,1.28941 -1.03308,3.50276 -1.01051,4.91854 0.0226,1.41578 -0.27988,3.5891 -0.67214,4.82958 -1.60702,5.08213 -4.99803,39.36632 -6.71997,67.94103 -2.5275,41.94278 -2.48295,49.31687 0.30336,50.20327 2.63191,0.83729 2.82903,0.30265 3.11587,-8.4506 z m 59.35882,-9.5124 c 0.59953,-1.54212 0.57238,-3.07646 -0.0652,-3.68259 -0.82269,-0.78217 -2.14758,0.16092 -5.35895,3.81463 l -4.26607,4.8537 4.33123,-1.17107 c 3.38536,-0.91539 4.55566,-1.7484 5.35895,-3.81465 z m -66.1416,11.29546 c -0.57273,-4.8602 -0.33081,-23.39408 0.58712,-44.98006 0.76213,-17.92199 8.23964,-80.23978 9.91519,-82.63342 2.84547,-4.06493 11.11532,-45.89302 9.4209,-47.65001 -0.81793,-0.84814 -2.09976,3.08251 -4.37683,13.42129 -1.77109,8.04138 -4.17005,17.42949 -5.33104,20.86247 -2.69246,7.96152 -3.26071,11.72793 -1.89014,12.52791 1.29364,0.75507 0.78618,2.35645 -1.4117,4.45476 -1.86954,1.78485 -3.18401,7.2012 -6.14414,25.31726 -1.1643,7.12555 -2.5757702,15.42054 -3.1366102,18.43331 -1.43477,7.70751 -3.2792,30.60238 -3.65603,45.38224 -0.62688,24.58728 0.56075,36.73249 3.7754,38.60881 2.3886602,1.39421 2.7771702,0.74701 2.2478802,-3.74456 z M 232.4382,516.26017 c 1.72668,-3.47717 -5.61376,-31.5551 -9.42868,-36.06568 -2.48795,-2.94163 -13.1753,-6.93864 -35.31957,-13.20934 -14.77926,-4.18511 -57.47264,-9.3642 -59.51188,-7.21933 -0.3471,0.36509 -0.36965,1.65835 -0.0501,2.87391 0.51814,1.97099 2.03236,2.3053 13.9955,3.08999 32.05304,2.10243 44.74011,4.573 60.52467,11.78605 11.10898,5.07646 12.43648,6.96157 7.83043,11.11955 -3.53607,3.19206 -27.7184,7.59525 -45.42516,8.27114 -35.28127,1.34673 -56.49197,0.0621 -73.582623,-4.45663 -4.22133,-1.1161 -7.89765,-1.97079 -8.1696,-1.8993 -1.42372,0.37427 -13.2896,-4.24145 -19.27079,-7.49615 -8.18204,-4.45231 -10.58001,-7.8526 -8.00881,-11.3564 1.11848,-1.52415 3.29407,-2.75731 6.20991,-3.51987 6.15251,-1.60911 22.28416,-3.26986 32.46026,-3.34195 9.371093,-0.0664 11.348363,-0.84518 10.040513,-3.95478 -0.74007,-1.75966 -2.04846,-2.08201 -8.093003,-1.99388 -11.57955,0.16882 -26.42145,1.96256 -39.78906,4.80877 l -12.43956,2.64862 -5.85556,10.35487 c -3.22055,5.69519 -6.36174,12.30212 -6.98041,14.68209 l -1.12486,4.3272 3.77713,5.04035 c 6.26098,8.35492 23.44519,15.86553 50.38363,22.02093 5.36977,1.22698 12.40359,2.9374 15.630743,3.80094 10.06259,2.6926 33.07851,4.38951 65.65288,4.84042 6.56851,0.0909 22.61477,-2.51732 41.6073,-6.76305 8.86251,-1.9812 16.30009,-3.49356 16.52794,-3.36079 1.21886,0.71014 7.39248,-2.98112 8.40876,-5.02768 z m -21.56641,2.09964 c -0.93832,-0.6713 -0.66702,-2.45868 0.96851,-6.38106 2.38131,-5.71087 2.51007,-6.79393 0.86739,-7.2958 -0.54956,-0.16789 -1.75555,1.5113 -2.68,3.73154 -1.72288,4.13788 -5.54444,8.77294 -4.73832,5.74699 0.21989,-0.8254 1.05942,-3.15528 1.86564,-5.17751 1.71107,-4.29187 1.67792,-4.90448 -0.23811,-4.40079 -0.77867,0.2047 -2.65313,2.67216 -4.16545,5.48323 -3.33697,6.20268 -4.91013,6.09932 -2.03412,-0.13365 1.60235,-3.47268 1.72354,-4.56323 0.54701,-4.92267 -0.97805,-0.29882 -2.27809,0.62554 -3.68433,2.61951 -3.31923,4.7066 -4.64648,4.2087 -1.92446,-0.72193 2.26806,-4.10836 2.27934,-4.29022 0.18662,-3.01163 -1.22497,0.74842 -2.36297,1.72937 -2.52888,2.1799 -0.39038,1.06006 -3.70702,4.09867 -4.73661,4.33953 -0.43701,0.10227 0.0577,-0.99678 1.09947,-2.44226 l 1.89405,-2.62814 -2.75945,1.30278 c -1.51771,0.71652 -3.78946,1.80957 -5.04834,2.42899 -2.14458,1.05519 -2.14005,1.01039 0.0717,-0.71055 1.29833,-1.01022 2.18247,-2.51436 1.96476,-3.34256 -0.32534,-1.23764 0.94127,-1.848 7.11232,-3.42738 4.8864,-1.25062 8.14375,-2.60089 9.32836,-3.86703 1.41742,-1.51496 2.19327,-1.77178 3.50619,-1.16063 1.17449,0.54671 2.15731,0.34711 3.23945,-0.6579 1.85867,-1.72619 10.03536,-2.94314 11.4364,-1.70209 1.63141,1.44513 2.23652,5.10614 1.4355,8.68509 -0.54186,2.42108 -0.38121,3.58493 0.57163,4.14108 1.81141,1.05728 3.15927,6.62429 1.98796,8.21081 -1.33559,1.80906 -11.95605,4.25083 -13.54489,3.11413 z m 4.69975,-4.24932 c 1.40844,-0.77486 2.01661,-2.13877 1.89103,-4.24087 -0.26156,-4.37834 -0.73862,-5.79658 -1.85142,-5.50404 -0.53193,0.13983 -0.75739,1.05213 -0.50103,2.02733 0.25636,0.97521 -0.72821,3.86725 -2.18793,6.42678 -1.57272,2.75767 -1.99661,4.20132 -1.04042,3.54335 0.88751,-0.61068 2.5479,-1.62433 3.68977,-2.25255 z m -41.08103,9.80966 c 0.20991,-0.76713 -1.95442,-0.49749 -6.37309,0.79395 -5.84898,1.70949 -6.58734,1.73376 -5.86867,0.1891 0.70745,-1.51979 0.36587,-1.60384 -2.446,-0.60194 -5.2689,1.87737 -10.8233,1.80097 -10.60957,-0.14594 0.15258,-1.38986 -0.50736,-1.384 -4.17883,0.0371 -2.39802,0.92819 -4.25602,1.34719 -4.12891,0.93114 0.12711,-0.41606 -0.26937,-1.23235 -0.88113,-1.81395 -0.87718,-0.83398 -1.50091,-0.6965 -2.95126,0.65048 -1.01146,0.93937 -2.15836,1.52155 -2.54866,1.29374 -0.39031,-0.22782 -0.28509,-0.52582 0.23382,-0.66223 0.51892,-0.13642 1.60959,-1.14991 2.42371,-2.25222 1.38861,-1.88016 1.25972,-1.90618 -2.08266,-0.42054 -2.40975,1.07111 -3.44462,1.19658 -3.19749,0.38768 0.21941,-0.71818 -0.56161,-0.95229 -1.95502,-0.58598 -1.27623,0.33549 -5.01597,-0.0688 -8.31054,-0.89851 -7.38775,-1.86048 -5.75185,-2.46532 4.21173,-1.55721 5.89331,0.53712 8.5179,0.29128 11.99678,-1.12376 3.50835,-1.42704 4.65604,-1.52911 5.40968,-0.48119 0.65564,0.91167 1.63949,0.95442 3.1273,0.13587 1.36395,-0.7504 3.32785,-0.80193 5.28413,-0.13867 1.71236,0.58057 4.23797,0.63547 5.61246,0.12198 1.3745,-0.51348 5.14595,-0.32658 8.381,0.41534 5.114,1.17284 6.97654,1.06325 14.26627,-0.83936 4.61129,-1.20395 8.84769,-1.90332 9.41399,-1.55503 0.58273,0.3584 0.0512,0.59336 -1.22473,0.54133 -2.8697,-0.11703 -10.57542,4.01963 -12.47252,6.69561 -0.79731,1.12466 -1.30661,1.5221 -1.13179,0.88321 z m -73.55907,-6.56663 c -0.53268,-0.4829 -1.772023,-2.71619 -2.754093,-4.96287 -3.09783,-7.08689 -6.23401,-5.82037 -3.46802,1.40052 1.12011,2.92416 1.13564,3.55289 0.0634,2.567 -0.78104,-0.71813 -1.92423,-2.74405 -2.54043,-4.50204 -0.8696,-2.48086 -2.21246,-3.6615 -5.99901,-5.27428 -2.68323,-1.14286 -5.12233,-2.01386 -5.42021,-1.93555 -0.29787,0.0783 -0.25755,1.34725 0.0896,2.81988 0.34721,1.47261 0.45292,3.65495 0.23503,4.8496 -0.2863,1.56968 -0.70193,0.65731 -1.49861,-3.28967 -0.98971,-4.90336 -1.35998,-5.50966 -3.62101,-5.93017 -2.41563,-0.44923 -2.47625,-0.30739 -1.48314,3.47038 1.44771,5.50708 -0.0908,4.10879 -2.55141,-2.31885 -1.28538,-3.35769 -2.60508,-5.39706 -3.53029,-5.45546 -1.19778,-0.0756 -1.10686,0.84861 0.48015,4.88097 1.52084,3.86418 1.63119,4.78365 0.49452,4.1202 -0.80475,-0.46972 -2.28971,-3.06811 -3.2999,-5.77418 -2.10316,-5.6339 -3.90886,-6.08514 -3.47919,-0.86946 0.28691,3.48255 0.2695,3.46971 -1.03311,-0.76239 -1.05096,-3.41453 -1.97529,-4.5871 -4.4703,-5.67085 l -3.14539,-1.36626 1.64371,4.86295 c 2.02695,5.99676 0.79847,5.54289 -2.53935,-0.93817 -2.95873,-5.74498 -4.59312,-5.9087 -3.86116,-0.3868 l 0.52583,3.9669 -1.87979,-2.3185 c -2.4216,-2.98676 -4.0431,-2.54482 -3.18471,0.86801 l 0.67083,2.66709 -3.70337,-2.40319 c -3.59862,-2.33521 -5.70093,-5.98138 -3.74521,-6.4955 0.53193,-0.13983 0.73473,-1.13832 0.45068,-2.21887 -0.28406,-1.08056 0.0705,-2.38676 0.7879,-2.90269 0.7174,-0.51594 1.09315,-1.7415 0.83501,-2.72349 -0.67167,-2.55504 4.81848,-7.08894 7.22667,-5.96796 0.96774,0.45047 2.02506,1.82911 2.3496,3.06363 0.32453,1.23453 1.50874,2.61108 2.63158,3.05902 1.12284,0.44792 3.12024,1.81039 4.43868,3.02768 1.31843,1.2173 3.17612,2.0085 4.12819,1.75821 1.78831,-0.47011 5.47686,1.59067 11.32674,6.3282 2.25292,1.82453 4.86825,2.78973 7.87323,2.90565 2.47483,0.0955 5.906,0.70566 7.62483,1.356 1.71883,0.65033 4.07528,0.93264 5.23656,0.62736 2.19832,-0.5779 13.280643,1.91366 21.813113,4.9041 2.71946,0.95311 6.20264,1.81338 7.74039,1.91173 1.99964,0.12788 0.9092,0.56302 -3.82876,1.52786 -5.61075,1.14258 -6.57046,1.59353 -6.27036,2.9463 0.24176,1.08995 -0.10514,0.97913 -1.09236,-0.34888 -1.93772,-2.60663 -3.98924,-1.89207 -4.59013,1.59877 -0.26956,1.56606 -0.78888,2.67301 -1.15404,2.45988 -0.36516,-0.21314 -0.39651,-1.50773 -0.0697,-2.87688 0.50107,-2.09901 0.26559,-2.61848 -1.50168,-3.31271 -3.23605,-1.2712 -3.60982,-0.76488 -2.76617,3.74725 0.43072,2.30369 0.34731,3.79343 -0.18537,3.31053 z m -15.289513,-3.55925 c -1.9819,-3.24592 -2.65225,-7.69196 -1.01576,-6.73677 0.87452,0.51043 4.23506,9.94876 3.60158,10.11529 -0.24786,0.0652 -1.41148,-1.45518 -2.58582,-3.37852 z m 40.506343,-24.95541 c 0.0511,-1.01537 -0.0544,-3.19777 -0.23432,-4.84979 -0.17995,-1.65201 -0.56849,-6.66254 -0.86341,-11.13451 -0.29492,-4.47197 -0.84434,-11.30687 -1.22093,-15.18868 -0.3766,-3.88181 -0.97188,-11.42572 -1.32285,-16.76423 -0.35098,-5.33852 -1.54629,-15.85489 -2.65627,-23.36972 -1.10997,-7.51482 -2.09974,-15.60672 -2.19947,-17.98199 -0.0998,-2.37527 -0.64975,-8.1505 -1.22225,-12.83384 -0.5725,-4.68334 -1.58833,-13.95472 -2.25739,-20.60308 -0.66907,-6.64836 -2.01743,-16.99555 -2.99635,-22.99377 -0.97894,-5.99821 -2.27479,-14.49805 -2.8797,-18.88853 -3.41765,-24.80562 -12.909573,-67.37497 -19.944643,-89.44783 l -4.27983,-13.42814 -4.45091,-0.73478 c -2.44799,-0.40412 -7.08521,-0.5784 -10.30492,-0.38728 -3.2197,0.19113 -5.96021,-0.0565 -6.09002,-0.55029 -0.40145,-1.52709 -6.80129,0.73162 -8.02804,2.83336 -0.91939,1.57515 -0.73777,3.08344 0.87494,7.26632 1.11933,2.90322 2.68825,6.27011 3.48648,7.48198 3.11246,4.72528 11.91328,27.09522 18.66908,47.4531 3.2267,9.72328 5.65036,19.53825 8.75129,35.43958 2.35877,12.09559 5.42937,27.2756 6.82352,33.73334 1.39417,6.45774 3.19376,16.91896 3.9991,23.24715 0.80535,6.32819 2.310413,17.33212 3.344603,24.45318 1.03419,7.12106 1.85839,13.65109 1.83154,14.51118 -0.0268,0.86009 1.16924,9.85144 2.65797,19.98079 1.48873,10.12935 2.79346,22.11653 2.89939,26.63817 0.16187,6.90927 1.19363,18.09478 2.41537,26.18562 0.23025,1.52477 1.49817,1.99012 6.05533,2.22241 7.41199,0.37782 9.02886,-0.0271 9.14269,-2.28972 z M 99.720927,356.21159 c 0.042,-1.57493 -0.35667,-4.61083 -0.88594,-6.74644 -0.52926,-2.13562 -0.75321,-4.51951 -0.49766,-5.29755 0.26851,-0.81752 0.0323,-1.30097 -0.55959,-1.14537 -1.23823,0.32551 -2.18092,-2.75944 -1.33072,-4.35477 0.33483,-0.62827 0.70812,-3.02217 0.82954,-5.31979 0.18701,-3.53874 0.40883,-3.91324 1.45075,-2.44932 1.397643,1.96373 1.778733,6.08936 0.7749,8.38894 -0.48772,1.11728 -0.22589,1.68808 0.939433,2.04793 1.33101,0.41101 1.49142,0.90364 0.91053,2.79626 -0.3993,1.30097 -0.15544,3.29642 0.56223,4.60089 0.81097,1.47407 0.93735,3.67029 0.35081,6.09915 -1.09912,4.55178 -2.651303,5.39371 -2.544283,1.38007 z m -8.58262,-61.85031 c -1.91645,-7.77089 -4.86923,-16.41181 -5.79237,-16.95063 -1.73613,-1.01334 -1.73662,-3.95049 -8.3e-4,-5.0494 1.95405,-1.2371 1.62772,-3.96671 -0.81684,-6.83258 -1.09087,-1.27888 -0.58369,-1.15347 1.6533,0.40883 3.41786,2.387 4.78831,5.34365 3.49997,7.55092 -0.56333,0.96512 -0.312,1.83731 0.90791,3.15084 0.92778,0.99898 1.56457,2.62636 1.41508,3.61642 -0.14947,0.99006 0.13812,2.9719 0.63908,4.4041 0.50097,1.43219 0.5053,2.7106 0.01,2.8409 -0.49568,0.13031 -0.57827,1.66421 -0.18355,3.40868 1.47897,6.53618 1.57424,7.59947 0.70144,7.82892 -0.49243,0.12945 -1.4072,-1.8402 -2.03282,-4.377 z m -9.76267,-33.31512 c -1.64307,-1.1769 -1.71361,-1.51767 -0.59821,-2.89034 0.91978,-1.13193 0.89232,-1.94204 -0.10072,-2.97175 -2.47149,-2.56277 -0.75412,-3.98153 1.91894,-1.58529 3.03306,2.71895 3.68997,4.55655 1.80594,5.05182 -0.75889,0.1995 -1.33108,1.12031 -1.27154,2.04625 0.0986,1.53416 -0.057,1.56515 -1.75441,0.34931 z m -4.73548,-16.55418 c -0.44784,-0.26139 -1.01177,-1.22659 -1.25317,-2.14488 -0.2414,-0.91829 -1.20729,-1.75397 -2.14642,-1.85707 -0.95472,-0.10482 -1.63232,-0.87257 -1.53693,-1.74143 0.0938,-0.85469 -0.3542,-1.71433 -0.99567,-1.9103 -0.64146,-0.19598 -1.17806,-1.41244 -1.19246,-2.70325 -0.0161,-1.43757 -0.70643,-2.66367 -1.78203,-3.16426 -2.13226,-0.99255 -3.1651,-4.28367 -1.53088,-4.87821 4.27526,-1.55542 8.51482,-0.64029 5.86435,1.26584 -1.31675,0.94696 -1.01171,1.38518 2.40105,3.44927 3.88323,2.34864 4.5477,4.44334 1.65106,5.20481 -1.05256,0.2767 -1.13761,0.69182 -0.27987,1.36604 2.83543,2.22875 3.56724,8.72806 0.80097,7.11344 z M 441.68546,573.76991 c -5.22309,0.68255 -11.09938,0.86641 -13.05841,0.40856 -7.02132,-1.64098 -23.41806,-12.15288 -30.83474,-19.76806 -3.87223,-3.97588 -10.33424,-10.4197 -14.36001,-14.31961 -4.02577,-3.89991 -12.83047,-13.3193 -19.56603,-20.93198 -6.73554,-7.61269 -18.23118,-20.41053 -25.54587,-28.43966 -7.31467,-8.02912 -20.44215,-22.95708 -29.17216,-33.17324 -52.72522,-61.70086 -62.44478,-73.46403 -74.84069,-90.57658 -3.73396,-5.15472 -11.88474,-13.91955 -21.24794,-22.84866 -8.35462,-7.9673 -16.69192,-16.17719 -18.52735,-18.24421 -1.83543,-2.06703 -6.24685,-6.49082 -9.80315,-9.83065 -3.55629,-3.33983 -10.25801,-10.19375 -14.8927,-15.23094 -12.85658,-13.9731 -29.96083,-30.70922 -34.83549,-34.08573 -2.40296,-1.66444 -4.56328,-3.7652 -4.8007,-4.66835 -0.66661,-2.53577 0.51418,-9.33738 2.76968,-15.95395 l 2.04555,-6.00063 -4.66023,-4.16876 c -11.87677,-10.62426 -12.73532,-17.76832 -4.28574,-35.66219 12.86477,-27.24406 18.40358,-37.95143 27.01314,-52.2205 15.06759,-24.97232 26.74653,-40.60278 39.79368,-53.257738 5.01997,-4.86908 20.07342,-13.62124 26.33079,-15.30887 6.57017,-1.77194 7.99851,-3.00625 7.16191,-6.188683 -1.57794,-6.002474 3.07945,-17.067486 15.61972,-37.109294 8.47525,-13.545098 13.69993,-19.94365 23.04154,-28.2184678 l 6.2901,-5.571786 9.71694,-1.311514 c 12.33681,-1.66511996 19.1976,-1.44074396 25.02489,0.818423 4.19491,1.626318 5.94779,3.478091 18.95053,20.0197778 7.88044,10.025239 17.43925,22.062719 21.2418,26.749968 14.79849,18.24143 23.00041,31.551956 33.75904,54.786034 7.35254,15.87838 11.10356,23.34685 15.50915,30.87955 2.19764,3.75753 8.64767,15.14738 14.3334,25.31079 5.68573,10.16341 12.57173,22.40577 15.30223,27.20525 7.64496,13.43776 41.1829,57.56822 51.60409,67.90257 5.6588,5.61165 24.69535,20.10212 35.37673,26.92846 16.53689,10.56861 47.38494,33.34007 50.42633,37.22393 1.34713,1.72026 3.04533,3.90165 3.77366,4.84756 4.29152,5.5734 8.40548,17.69321 8.69991,25.63031 0.42955,11.57844 -0.87102,26.78262 -3.76609,44.02662 -1.6771,9.98886 -21.36239,66.59642 -29.25525,84.12695 -18.54675,41.19342 -29.24264,59.65276 -40.78924,70.39545 -9.01011,8.3828 -9.41524,8.69519 -16.89641,13.02815 -8.74522,5.0651 -28.25163,10.92055 -42.64661,12.8017 z m 18.53604,-17.40667 c 5.66451,-4.09249 10.84371,-7.40028 11.50934,-7.35064 0.66563,0.0496 -2.38498,3.22867 -6.77913,7.0645 l -7.98938,6.97423 9.89583,-3.14439 9.89584,-3.14438 10.52069,-10.01362 c 15.76891,-15.00888 24.78448,-26.91571 31.94223,-42.186 8.66631,-18.48865 16.9314,-37.79454 22.38612,-52.29036 2.61237,-6.9423 6.3838,-16.63654 8.38095,-21.54275 6.795,-16.69262 10.69898,-29.22002 13.312,-42.71631 4.20357,-21.71132 4.3721,-39.05654 0.52174,-53.7033 l -2.23924,-8.51806 -6.71827,-4.82772 c -3.695,-2.65525 -13.71914,-8.93958 -22.27583,-13.96517 -21.31642,-12.51976 -94.87987,-64.45654 -113.34147,-80.02054 -3.59953,-3.03456 -6.91728,-5.57451 -7.3728,-5.64432 -0.45552,-0.0698 -0.94178,-0.55894 -1.08058,-1.08694 -0.1388,-0.528 -2.76848,-2.93864 -5.84373,-5.35697 -3.07524,-2.41833 -6.74857,-5.48862 -8.16296,-6.82286 -1.41438,-1.33425 -5.10257,-4.31965 -8.19596,-6.63423 -15.54329,-11.63 -29.42487,-23.25164 -62.97397,-52.72172 -23.50201,-20.64454 -32.54825,-29.34416 -46.079,-44.31342 C 274.935,99.310422 270.13579,94.330732 268.869,93.332292 l -2.30326,-1.81533 -2.85595,13.069398 c -3.64554,16.68264 -7.2089,24.41645 -26.9718,58.53867 -18.64625,32.19425 -29.60604,47.12403 -37.83138,51.53518 -1.49526,0.80189 -4.51667,3.0366 -6.71424,4.96602 -2.19756,1.92942 -5.8845,4.29175 -8.19319,5.24962 -3.54299,1.46998 -3.95723,1.91356 -2.6562,2.84436 2.12966,1.52362 6.40222,-0.51282 17.87376,-8.51918 5.17399,-3.6111 9.63206,-6.43442 9.90683,-6.27404 0.27477,0.16037 -1.22554,2.14875 -3.33402,4.41861 -3.91952,4.2195 -11.93184,9.82889 -18.07812,12.65639 -3.02594,1.39205 -3.26277,1.77128 -1.97325,3.15976 1.78659,1.92369 6.00504,0.31324 15.37155,-5.86832 3.35293,-2.21281 6.30718,-3.90018 6.56499,-3.7497 1.78436,1.04149 -11.29352,10.83939 -16.18403,12.12502 -2.68569,0.70601 -2.74852,0.86889 -1.10964,2.87664 0.9555,1.17053 2.42767,1.94123 3.27151,1.71265 2.23483,-0.60538 9.6334,-4.99875 16.42704,-9.7546 4.08897,-2.86247 5.67147,-3.61202 5.11869,-2.42448 -1.55924,3.34969 -10.25753,9.77387 -19.10049,14.10682 -1.72536,0.8454 -2.2014,1.61504 -1.55496,2.51392 1.47448,2.05028 4.77632,0.58549 14.31704,-6.35138 4.89115,-3.55627 9.10817,-6.34035 9.37117,-6.18685 1.999,1.16679 -12.96237,14.36097 -17.69529,15.60516 -1.95813,0.51476 -2.13214,0.96271 -1.16213,2.99171 1.00791,2.10832 1.46468,2.22808 3.92085,1.02808 1.529,-0.74703 6.27895,-4.12077 10.55543,-7.4972 6.94417,-5.48266 7.53472,-5.79309 5.52398,-2.9037 -2.74962,3.95114 -9.64385,9.92208 -13.68612,11.85325 -3.1145,1.48793 -3.49228,4.03824 -0.64449,4.35087 0.89039,0.0978 5.55889,-2.45903 10.37442,-5.68173 4.81555,-3.22271 8.4354,-5.17173 8.04412,-4.33115 -1.09966,2.36238 -10.62935,10.39898 -13.10164,11.0489 -2.70102,0.71005 -3.27354,2.25771 -1.73447,4.68874 1.50685,2.38014 3.44893,1.33981 13.94961,-7.47258 5.70148,-4.7848 7.62458,-6.01142 6.73453,-4.29553 -2.15994,4.16411 -8.52901,10.41998 -13.3237,13.08688 l -4.61966,2.56955 2.17927,2.83659 c 2.52268,3.2836 2.42651,3.31999 13.01688,-4.92445 3.73862,-2.91045 7.03036,-5.15582 7.31498,-4.98969 0.75818,0.44254 -7.6204,8.50866 -12.18144,11.72718 -4.90767,3.46311 -4.67154,3.08604 -3.29461,5.26098 1.56773,2.47631 2.73298,2.02093 11.45151,-4.47521 4.11826,-3.0685 7.7177,-5.44486 7.99877,-5.28081 1.05927,0.61828 -6.30109,8.5089 -9.82414,10.53191 -2.02021,1.16004 -4.17657,2.40643 -4.79192,2.76973 -1.51274,0.89315 -0.68572,3.64372 1.15637,3.84594 0.8143,0.0894 5.00637,-2.94545 9.31571,-6.7441 4.30934,-3.79866 7.4232,-6.02162 6.91968,-4.93993 -1.50691,3.23728 -5.32769,7.3828 -10.10189,10.96047 -4.00076,2.99808 -4.35147,3.58243 -3.16553,5.27429 1.27548,1.81958 1.49991,1.79733 5.1404,-0.50965 2.09369,-1.32676 6.34047,-4.27854 9.43731,-6.55952 3.34002,-2.46009 5.00495,-3.32712 4.09262,-2.13127 -2.66057,3.48739 -9.02463,8.79114 -12.55718,10.46505 -3.58609,1.69928 -3.86795,3.0488 -1.10556,5.29345 1.90526,1.54815 1.83056,1.59076 12.7859,-7.29429 8.75083,-7.09716 5.83314,-2.68052 -3.48425,5.27423 -5.51281,4.7066 -6.34657,5.83286 -5.43711,7.34462 0.5908,0.98206 1.28587,1.92419 1.54458,2.09362 0.53013,0.34715 3.96064,-1.80757 10.98206,-6.89786 l 4.77655,-3.46284 -2.25433,3.22426 c -1.23988,1.77336 -4.0645,4.74568 -6.27694,6.60518 -2.58857,2.17561 -3.86062,3.9971 -3.56822,5.1094 0.75441,2.86977 3.26102,2.29442 10.46019,-2.401 6.13246,-3.9997 6.65755,-4.20419 4.94591,-1.92614 -1.05322,1.40176 -4.1135,3.92016 -6.80061,5.59644 -2.68711,1.67629 -5.00266,3.17571 -5.14567,3.33206 -0.143,0.15634 0.80722,1.46649 2.1116,2.91144 2.65649,2.94276 2.89718,2.8659 10.87083,-3.4713 2.52816,-2.0093 4.86113,-3.7228 5.18438,-3.80778 1.36645,-0.35921 -5.23226,6.36319 -8.34524,8.50167 -4.03673,2.77307 -4.30278,3.88179 -1.63795,6.82592 l 2.00663,2.21695 6.12057,-5.1969 c 3.36631,-2.8583 6.579,-5.31742 7.13932,-5.46472 2.24619,-0.59048 -5.39733,7.70655 -9.99745,10.85222 -2.21727,1.51623 -2.25294,1.80883 -0.5321,4.36514 1.01445,1.50699 2.43432,2.80473 3.15525,2.88387 1.05487,0.1158 8.06588,-4.94936 12.18066,-8.80001 0.45641,-0.42711 0.10299,0.61515 -0.78533,2.31614 -0.88834,1.70098 -3.47215,4.54384 -5.74182,6.31744 -3.3641,2.62886 -3.93817,3.55947 -3.10665,5.03616 1.50662,2.6756 3.44574,1.70468 12.47677,-6.24715 5.30058,-4.66717 7.73835,-6.36014 6.9389,-4.81887 -1.68249,3.24364 -7.1022,8.55842 -12.11963,11.88499 -3.55156,2.35469 -4.00008,3.03768 -3.06698,4.6702 0.6011,1.05169 1.19898,2.29141 1.3286,2.75494 0.47038,1.68234 6.28732,-2.18474 12.72718,-8.46103 5.39129,-5.25436 6.27763,-5.85067 4.88718,-3.28796 -1.49629,2.75777 -9.02693,9.86671 -13.50468,12.74845 -1.26584,0.81466 -1.28366,1.34585 -0.0883,2.63291 2.35662,2.53748 7.03374,0.15675 16.20378,-8.24796 7.35361,-6.73987 7.89655,-7.08416 5.56525,-3.52906 -2.58179,3.93711 -14.85392,15.22167 -17.23431,15.84743 -0.69305,0.18219 -1.1972,0.57048 -1.12034,0.86285 0.34287,1.30427 4.67986,5.43925 5.48343,5.22801 1.63952,-0.431 15.5874,-9.48134 18.13068,-11.76442 2.35247,-2.11179 2.45091,-2.12656 1.57138,-0.23591 -1.518,3.26311 -7.27628,8.5068 -12.16332,11.07633 -7.23648,3.80482 -6.9696,3.48923 -4.99563,5.90747 2.246,2.75149 3.38795,2.40269 12.22421,-3.73376 4.00162,-2.77898 7.45364,-4.94881 7.67116,-4.82185 1.07756,0.62895 -5.59285,7.87203 -9.98017,10.83699 -2.7409,1.8523 -5.08829,3.54204 -5.21642,3.75499 -0.19242,0.31979 4.01649,5.47179 5.0716,6.208 0.17308,0.12076 2.56774,-1.60709 5.32148,-3.83968 2.75372,-2.23259 7.11659,-5.76833 9.69524,-7.85721 l 4.68846,-3.79795 -1.59635,2.95818 c -1.63458,3.02901 -10.4519,11.14612 -14.5668,13.41 -2.096,1.15313 -2.14576,1.4856 -0.57223,3.82309 0.94788,1.40807 2.16979,2.69649 2.71537,2.86318 0.54558,0.16668 4.09729,-2.16372 7.89268,-5.17867 3.79539,-3.01495 7.20969,-5.54816 7.58732,-5.62934 1.34758,-0.28974 -2.48521,3.94868 -8.04978,8.9016 -3.11077,2.76884 -5.60555,5.22591 -5.54397,5.46016 0.27953,1.06332 3.71916,4.74482 4.29233,4.59415 0.35224,-0.0926 4.44615,-2.99175 9.09758,-6.44256 8.12202,-6.02557 8.39287,-6.15284 6.83528,-3.21188 -1.62392,3.06621 -10.64654,11.36434 -13.04325,11.99592 -1.3223,0.34846 0.15471,3.68918 2.20575,4.989 1.45369,0.92124 8.57498,-3.21743 14.38501,-8.36013 6.27166,-5.55129 7.15081,-5.75012 3.06441,-0.69304 -3.17894,3.93404 -11.38659,10.16314 -14.45365,10.96941 -1.15354,0.30325 -1.22604,0.90618 -0.2889,2.4024 0.68813,1.09865 1.77471,2.16722 2.41464,2.37461 1.86054,0.60296 7.33885,-2.20785 13.74704,-7.05334 6.72382,-5.08416 6.90056,-5.17968 6.36976,-3.44228 -0.58582,1.91749 -10.60372,9.75883 -14.87721,11.6449 -2.07607,0.91625 -3.73954,1.79956 -3.6966,1.96291 0.46911,1.78448 3.59351,4.67736 4.72924,4.3788 0.80323,-0.21116 5.07309,-3.6844 9.48857,-7.71833 4.41549,-4.03392 8.26332,-7.19714 8.55075,-7.02938 1.84419,1.07643 -12.09937,15.25416 -16.01439,16.28335 -2.29747,0.60396 -2.30102,0.42544 0.0789,3.96086 1.02432,1.52164 2.36848,2.63359 2.987,2.47099 0.61853,-0.1626 4.78929,-3.46914 9.26837,-7.34787 4.47908,-3.87873 7.68501,-6.16854 7.1243,-5.08848 -1.18954,2.29133 -10.31721,10.36806 -13.97091,12.36234 -2.05327,1.12072 -2.29867,1.72021 -1.33846,3.26967 0.64669,1.04353 1.36099,2.02049 1.58733,2.17102 1.29096,0.85853 13.9925,-7.50216 19.48765,-12.8276 l 6.43947,-6.24059 -3.32078,5.06738 c -3.72461,5.68362 -9.64007,11.02714 -16.14631,14.58519 -4.07793,2.2301 -4.27735,2.53817 -3.07314,4.74775 0.70828,1.2996 1.6898,2.60521 2.18118,2.90136 1.20453,0.72599 10.07446,-4.3452 17.56477,-10.04225 5.88794,-4.47832 6.03694,-4.53856 4.10271,-1.65902 -2.26692,3.37485 -9.85264,9.02177 -15.41992,11.47885 -4.44766,1.96293 -4.77111,2.68392 -2.57992,5.75071 1.58844,2.22317 1.90255,2.24847 6.00845,0.48382 6.7511,-2.90151 15.72761,-8.72813 19.01685,-12.34377 3.6809,-4.04616 4.71251,-4.42887 2.99251,-1.11018 -2.47966,4.78442 -10.00867,10.15649 -21.46624,15.31653 -1.90682,0.85877 -3.33813,2.05141 -3.18069,2.65033 0.50933,1.93749 4.21875,3.71857 5.63034,2.70341 0.93412,-0.67179 1.23149,-0.54384 0.94155,0.40515 -0.82787,2.70974 5.49315,-0.9867 25.0349,-14.64003 l 2.62061,-1.83095 -2.24086,3.2755 c -4.50804,6.58949 -19.16479,16.76978 -24.15298,16.77621 -1.86282,0.002 -1.9626,0.30316 -0.80506,2.4266 2.01302,3.69277 3.26668,3.99495 9.26148,2.23231 6.26731,-1.84276 14.24804,-7.38862 19.89234,-13.82331 4.72164,-5.38284 5.61606,-4.87243 1.60622,0.91659 -4.01454,5.7958 -12.8123,12.28632 -20.4202,15.06494 -3.30194,1.20596 -5.96823,2.32684 -5.92512,2.49086 0.52473,1.99607 4.01569,4.52594 5.63363,4.08265 3.7564,-1.02915 17.9613,-8.74015 21.91882,-11.89837 3.08607,-2.46277 3.75013,-2.74168 3.07512,-1.29159 -1.58545,3.40598 -7.41228,7.72767 -15.8547,11.7592 -9.09653,4.3439 -9.99263,5.72761 -5.73336,8.85318 l 2.43588,1.78753 7.36531,-3.57226 c 4.05093,-1.96474 9.96687,-5.81634 13.14653,-8.55912 7.74996,-6.6851 7.75206,-6.68623 5.89732,-3.17481 -2.67673,5.06756 -15.9754,14.2478 -23.50831,16.22806 -3.6991,0.97243 -3.66234,0.6877 -0.60506,4.68569 1.31152,1.71507 3.05645,2.9417 3.87762,2.72583 3.58478,-0.94237 10.5856,-5.43252 18.07583,-11.59337 5.47885,-4.50646 7.47374,-5.7731 6.20255,-3.93822 -2.7112,3.91338 -11.13418,10.70889 -17.91413,14.45281 -3.22789,1.78245 -5.96094,3.38266 -6.07345,3.55603 -0.11251,0.17337 0.53395,1.34881 1.43657,2.61212 2.41715,3.38304 6.46578,1.88048 18.4323,-6.84073 5.57597,-4.06378 10.38169,-7.24654 10.67938,-7.07279 0.78985,0.46102 -12.82691,11.96574 -17.03946,14.39654 -1.97513,1.13973 -4.78735,2.38928 -6.24937,2.77679 -2.87557,0.76214 -3.00073,1.81371 -0.53225,4.47161 1.42371,1.53298 2.14666,1.48757 7.14274,-0.44863 5.48804,-2.12686 7.4869,-3.32216 16.86915,-10.08761 l 4.78065,-3.44726 -2.23891,3.1404 c -3.0881,4.33149 -11.18698,9.85274 -18.48387,12.60099 l -6.10663,2.29996 -5.70692,-6.01633 c -4.08227,-4.3036 -6.07647,-5.75056 -7.00509,-5.08273 -1.58066,1.13676 -1.4603,1.59154 1.11499,4.21388 2.80269,2.85371 2.95707,3.99995 0.35708,2.65133 -1.60884,-0.83452 -4.02858,-0.65218 -9.12504,0.68758 -3.81458,1.00278 -6.86688,2.08468 -6.78289,2.4042 0.27239,1.03618 26.55584,29.04361 28.61761,30.49469 1.73016,1.21771 2.89003,1.0896 8.61701,-0.95173 8.08201,-2.88077 25.13573,-12.10584 37.49911,-20.28482 5.04987,-3.34075 9.32718,-5.9891 9.50512,-5.88524 0.88814,0.51838 -5.78322,6.93645 -10.86481,10.45231 -7.91908,5.47908 -27.07429,14.75582 -35.74104,17.30915 -3.94398,1.16196 -7.13869,2.24242 -7.09936,2.40104 0.0396,0.15855 2.69322,3.05225 5.89752,6.43028 5.186,5.46717 6.22176,6.1135 9.42854,5.88343 9.17761,-0.65843 29.70521,-11.95644 42.95484,-23.64156 4.03949,-3.56251 7.37018,-6.37972 7.40153,-6.26047 0.0313,0.11924 -2.0802,2.74377 -4.69233,5.83228 -8.69754,10.28373 -24.39426,20.0128 -38.87551,24.09563 -4.36538,1.23081 -7.90487,2.36874 -7.86552,2.52881 0.45253,1.84139 5.08961,5.19125 7.15409,5.16821 4.53258,-0.0506 15.25855,-5.53579 31.75473,-16.2392 8.72042,-5.65816 16.02145,-10.19059 16.22451,-10.07206 0.20307,0.11852 -2.75752,2.92734 -6.57909,6.24181 -10.1617,8.81331 -23.02336,16.64655 -33.06243,20.13626 l -8.52555,2.9636 3.15888,2.17302 c 2.93071,2.01605 3.60377,2.04174 9.31776,0.35569 3.38736,-0.99952 8.64309,-3.12588 11.67939,-4.72524 5.14078,-2.70789 20.22012,-13.86424 27.41554,-20.28321 4.94261,-4.40927 3.88259,-2.64078 -3.0035,5.01086 -9.7167,10.79694 -17.93674,16.40138 -29.21673,19.92004 -5.12448,1.59851 -9.23546,3.21745 -9.13552,3.59762 0.0999,0.38018 1.50261,1.00422 3.11705,1.38677 6.62211,1.56915 22.47276,-5.5039 36.95879,-16.49215 4.9163,-3.72922 8.82239,-6.39963 8.6802,-5.93423 -0.62158,2.03455 -11.78903,12.46521 -17.02054,15.89759 -3.1527,2.06849 -9.3616,4.96814 -13.79755,6.44368 l -8.06534,2.68281 4.21011,0.3515 c 12.46198,1.04041 16.44937,-0.31364 30.21888,-10.26184 z m -69.8277,-18.35301 c -0.56741,-0.53946 0.47195,-0.97034 2.97517,-1.23338 5.23944,-0.55058 14.63076,-5.45578 31.98832,-16.7079 8.03646,-5.20967 14.77012,-9.37968 14.96369,-9.26669 1.83914,1.07346 -19.45866,15.82719 -31.39897,21.75115 -8.00708,3.97258 -17.2318,6.68938 -18.52821,5.45682 z m -10.07813,-14.79504 c -2.43825,-0.38297 -2.85989,-0.10732 7.90483,-5.16785 5.66338,-2.66237 8.36916,-2.57715 6.38157,0.20101 -1.4082,1.96832 -11.35661,5.42701 -14.2864,4.96684 z m 18.10663,-7.82066 c -0.16012,-0.60908 0.84289,-1.40553 2.22892,-1.76989 3.72895,-0.98027 12.02476,-5.82408 21.06055,-12.29697 4.39708,-3.14989 8.21501,-5.59848 8.48428,-5.44132 0.87425,0.51029 -6.81756,7.66301 -12.82061,11.92206 -6.53444,4.63607 -18.47253,9.41437 -18.95314,7.58612 z m -29.83611,-1.90439 c -1.75281,-0.68855 -1.51899,-0.87793 1.75512,-1.42154 2.07753,-0.34494 5.59283,-1.57292 7.81174,-2.72888 2.88373,-1.50229 4.68667,-1.93581 6.32127,-1.51998 2.17851,0.55419 2.1575,0.64875 -0.4434,1.99554 -4.75844,2.46398 -13.33336,4.50426 -15.44473,3.67486 z m 32.23182,-12.58178 c 5.51446,-3.90077 12.17157,-9.1082 14.79358,-11.57207 l 4.76729,-4.47978 -0.93632,3.31981 c -1.75079,6.20761 -10.86447,13.39284 -22.1748,17.48262 l -6.47604,2.34172 10.02629,-7.0923 z m -34.67097,3.72402 c 7.03443,-4.44256 9.42073,-5.37806 9.82226,-3.85063 0.46947,1.78587 -2.32375,3.39481 -8.53098,4.91398 l -4.85736,1.18882 3.56609,-2.25215 z m -1.4623,-11.37787 c -0.57517,-2.18795 -4.8071,-2.86855 -10.52825,-1.69318 -3.37316,0.69298 -6.109,1.34809 -6.07965,1.45578 0.0293,0.1077 0.84983,1.17156 1.82331,2.36412 1.64554,2.01589 2.23491,2.04608 8.38469,0.42941 3.63811,-0.95639 6.51806,-2.10665 6.3999,-2.55613 z m 3.49177,-6.38353 c -0.56856,-2.16281 -2.44703,-3.35716 -4.45139,-2.83025 -2.07748,0.54614 -2.13463,0.79777 -0.60627,2.6701 1.5102,1.85011 5.53543,1.97756 5.05766,0.16015 z m -12.01566,-1.04343 c -3.00164,-2.28033 -3.5905,-2.33913 -8.30629,-0.82938 -2.79159,0.89372 -5.19959,1.83562 -5.35111,2.09311 -0.15151,0.25749 0.73592,1.38003 1.97207,2.49453 2.02611,1.82671 2.87168,1.8623 8.58178,0.36122 l 6.33421,-1.66514 -3.23066,-2.45434 z m 7.70509,-4.53388 c -2.19908,-3.70935 -17.09312,-25.0092 -24.05055,-34.39451 -4.76304,-6.42516 -11.52575,-15.81431 -15.02825,-20.86478 -10.99418,-15.8532 -21.96011,-30.58251 -28.75815,-38.62759 -3.60554,-4.26696 -9.282,-11.61522 -12.61433,-16.32948 -3.33234,-4.71425 -7.25425,-9.91127 -8.71535,-11.54892 -2.3158,-2.59564 -6.58577,-8.50569 -21.31067,-29.49602 -1.85252,-2.64078 -5.0134,-6.92803 -7.02416,-9.52722 -2.01077,-2.59918 -7.05972,-9.64711 -11.21992,-15.66206 -4.16019,-6.01495 -12.22881,-16.92196 -17.93026,-24.2378 -5.70145,-7.31584 -12.12178,-15.63177 -14.2674,-18.47985 -2.14562,-2.84808 -6.97841,-8.94974 -10.73953,-13.55925 -3.76112,-4.60951 -8.18134,-10.54317 -9.82272,-13.18592 -1.64136,-2.64276 -3.45512,-4.68124 -4.03055,-4.52997 -0.57544,0.15128 -2.62349,3.05852 -4.55121,6.46054 -4.32886,7.63949 -13.0949,17.60479 -20.59607,23.41376 -4.23376,3.27866 -5.5359,4.86283 -5.16302,6.28126 0.43279,1.64635 0.95819,1.69723 3.9787,0.38533 l 3.48007,-1.5115 -2.79367,2.26458 c -2.41578,1.95826 -2.58633,2.48781 -1.26088,3.91498 0.93684,1.00874 2.55708,1.39537 4.16738,0.99444 2.60029,-0.64737 2.61087,-0.6332 0.81265,1.09101 -2.91033,2.79052 -0.27758,4.34786 4.10918,2.43068 3.27743,-1.43235 3.44686,-1.40447 2.06308,0.33956 -0.82918,1.04503 -2.07723,2.04981 -2.77346,2.23283 -1.51621,0.39859 -1.43561,0.93455 0.44513,2.95962 0.95724,1.0307 2.09977,1.19084 3.48899,0.48906 1.92392,-0.97189 1.97362,-0.91662 0.7243,0.80546 -0.82839,1.14186 -0.93188,2.41833 -0.27063,3.33781 0.84494,1.1749 1.77442,1.17136 4.40794,-0.0168 3.07939,-1.3893 3.22507,-1.35739 1.88552,0.41304 -0.79844,1.05526 -1.8152,2.1562 -2.25946,2.44651 -0.44427,0.29032 -0.31226,1.21684 0.29335,2.05894 0.7773,1.08085 1.65999,1.19163 3.00163,0.37673 1.77011,-1.07514 1.80554,-1.03214 0.51633,0.62643 -1.32386,1.70314 -1.27647,1.84889 1.08668,3.3427 2.1042,1.33012 2.98431,1.29745 5.93039,-0.22011 3.13433,-1.61452 3.31741,-1.60489 1.94781,0.10243 -0.83143,1.03646 -2.11325,2.0426 -2.84847,2.23588 -0.75308,0.19797 -0.99955,1.05285 -0.56446,1.95784 0.58962,1.22639 1.55285,1.33294 4.07163,0.45039 3.11544,-1.09162 3.21635,-1.04612 1.81075,0.81645 -0.8187,1.08488 -1.84426,2.06601 -2.27903,2.18031 -0.43477,0.11429 -0.007,0.961 0.95075,1.88158 1.32721,1.27579 2.40141,1.37933 4.51763,0.43544 l 2.77639,-1.23833 -2.27772,1.83711 c -1.82201,1.46952 -2.00195,2.12304 -0.89944,3.26628 0.76336,0.79155 2.54707,1.13662 3.99796,0.77341 2.45529,-0.61464 2.52976,-0.54121 1.18668,1.17022 -2.15701,2.7486 -0.0135,3.98664 3.93428,2.27232 l 3.36215,-1.46002 -2.33451,2.17597 c -3.05563,2.84812 -1.88423,5.56445 1.93545,4.48805 2.66735,-0.75166 2.70341,-0.71585 1.09736,1.08733 -2.23773,2.51262 -0.73155,4.36148 2.43564,2.98979 2.13813,-0.926 2.29834,-0.86156 1.09068,0.43876 -1.89104,2.03612 0.72134,4.98155 3.73527,4.21147 1.70464,-0.4355 1.9014,-0.28572 0.95687,0.7285 -1.02338,1.09887 -0.72974,1.81192 2.10722,5.11708 2.67522,3.11673 3.80535,3.72908 5.998,3.25001 1.75415,-0.38327 2.13106,-0.27057 1.07466,0.32132 -2.37184,1.3289 -0.74745,3.03634 2.45902,2.58473 2.41069,-0.33953 2.5936,-0.19119 1.46977,1.19187 -1.74936,2.15287 0.35301,5.06653 2.70156,3.74406 1.33474,-0.75158 1.56682,-0.62586 1.01862,0.55185 -0.77596,1.66696 0.77091,4.49994 2.24542,4.11232 0.5064,-0.13313 0.76617,0.26387 0.57726,0.88222 -0.19069,0.62414 0.65166,0.86971 1.89355,0.55203 1.52713,-0.3906 1.90872,-0.21863 1.20247,0.54204 -0.56901,0.61285 -0.58065,1.74545 -0.0259,2.51687 0.80914,1.1251 1.45938,1.08057 3.28678,-0.22509 2.23191,-1.59469 2.25305,-1.57941 1.04286,0.75371 -1.63067,3.14374 -0.41901,4.09891 3.39342,2.67512 l 3.10147,-1.15827 -2.37756,1.74076 c -1.99752,1.46252 -2.14077,1.99573 -0.89615,3.33587 0.81479,0.87731 2.45338,1.3723 3.64133,1.09999 1.82205,-0.41767 1.9216,-0.31998 0.63644,0.62463 -1.39897,1.02827 -1.35338,1.26383 0.55791,2.8826 1.14477,0.96955 3.04398,1.54247 4.22048,1.27316 2.0123,-0.46065 2.03834,-0.41622 0.43922,0.74937 -1.6254,1.18473 -1.56058,1.32034 1.47935,3.09469 1.74858,1.02061 3.03063,2.11025 2.849,2.42143 -0.5505,0.94317 3.18387,3.97926 4.47651,3.63945 0.66671,-0.17526 1.35255,0.65696 1.53267,1.85984 0.20979,1.40102 1.19525,2.36861 2.7646,2.71448 1.69298,0.37311 2.21122,0.927 1.69494,1.81153 -0.51628,0.88453 0.0888,1.64918 1.97903,2.50085 1.49748,0.67472 2.94812,2.08434 3.22366,3.13249 0.27554,1.04814 1.6526,2.14568 3.06015,2.43895 1.40753,0.29328 2.09467,0.83677 1.52695,1.20776 -1.92969,1.26102 2.4591,5.38826 5.01519,4.71631 1.24443,-0.32714 2.37702,-0.15958 2.51685,0.37234 0.13983,0.53193 -0.38492,1.13517 -1.16612,1.34053 -0.86519,0.22744 -1.0537,0.88321 -0.4823,1.67775 0.55188,0.76739 2.19265,0.98751 3.98552,0.53469 2.76044,-0.69723 2.89205,-0.62004 1.39719,0.81917 -0.90765,0.87387 -1.7638,1.74287 -1.90256,1.93111 -0.13876,0.18825 0.50912,1.16212 1.43974,2.16415 1.36191,1.46643 2.26125,1.56396 4.60957,0.49983 l 2.91753,-1.32204 -2.46933,1.98128 -2.46933,1.98128 2.6161,1.52697 c 1.43887,0.83983 3.82019,1.23992 5.29186,0.8891 l 2.67575,-0.63785 -2.06658,1.53116 c -2.03216,1.50565 -2.02757,1.55661 0.27525,3.05932 1.77732,1.1598 3.06977,1.20488 5.36169,0.18703 3.60782,-1.60225 4.10923,-1.05822 1.04351,1.13217 -1.91558,1.36867 -1.99545,1.81223 -0.59743,3.31753 0.88758,0.95571 3.07577,1.9451 4.86264,2.19866 2.54561,0.36122 2.94044,0.68281 1.82407,1.48567 -1.3187,0.94836 -1.25832,1.17474 0.81106,3.04045 1.56942,1.41497 3.14468,1.79774 5.28502,1.28421 2.90007,-0.69579 2.95625,-0.65229 1.149,0.88993 -1.04509,0.89184 -1.82519,1.87967 -1.73354,2.19519 0.46005,1.58365 2.48777,2.4087 5.19622,2.11424 2.75688,-0.29974 2.84947,-0.21979 1.09137,0.94226 -3.32915,2.20045 -0.65352,4.12155 3.27615,2.35227 l 3.33795,-1.50287 -2.07831,2.93775 c -2.54454,3.59677 -0.7494,5.24033 3.61231,3.30731 l 2.87472,-1.27402 -2.31181,2.28526 c -1.93362,1.91143 -2.05015,2.4725 -0.71226,3.42965 0.91204,0.65251 2.51186,0.70823 3.72212,0.12963 2.90037,-1.38657 3.04361,0.13028 0.25456,2.69574 -1.97255,1.81442 -2.03087,2.13625 -0.42095,2.32315 1.02784,0.11932 2.99337,-0.36864 4.36785,-1.08433 2.37397,-1.23619 2.42436,-1.20328 1.00694,0.65776 -0.82064,1.07748 -1.85942,2.05563 -2.30839,2.17365 -0.44898,0.11803 -0.12166,0.96257 0.72736,1.87675 0.93568,1.00749 2.58415,1.41444 4.1854,1.03323 2.54633,-0.60621 2.57164,-0.57678 0.70064,0.81425 -1.67027,1.24184 -1.71326,1.72228 -0.3081,3.44369 1.30949,1.60421 2.22334,1.77355 4.61314,0.85482 l 2.98016,-1.14568 -1.75485,2.17435 c -2.34734,2.90847 -1.87777,4.01536 1.35933,3.20429 2.49657,-0.62549 2.57579,-0.55125 1.23474,1.15758 -1.72415,2.19703 -0.42294,3.75999 2.50722,3.01156 1.60562,-0.4101 1.84873,-0.24751 0.99771,0.66734 -1.47104,1.58141 0.38673,4.11827 2.60393,3.55573 1.34774,-0.34199 1.48502,-0.17811 0.62538,0.74645 -0.72179,0.7763 -0.67696,1.62462 0.13008,2.46146 1.26128,1.30787 1.53064,1.34517 4.35383,0.60301 1.47457,-0.38764 1.49579,-0.25794 0.21549,1.31768 -1.94644,2.3954 0.76136,5.41637 3.85269,4.29829 1.19555,-0.43241 1.96396,-1.14006 1.70756,-1.57254 z M 210.40132,333.07799 c -0.47622,-0.45277 -0.1874,-1.00157 0.64192,-1.21958 1.69881,-0.44659 2.10151,0.068 0.97799,1.2497 -0.41472,0.43622 -1.14369,0.42266 -1.61991,-0.0301 z m 138.76139,146.4665 c -1.5554,-1.72301 -2.79463,-2.26025 -3.82263,-1.65722 -0.83663,0.49075 -2.86075,1.54879 -4.49804,2.35119 -2.77107,1.35803 -3.43174,3.24663 -1.52507,4.35952 0.44784,0.2614 3.36418,-0.19506 6.48075,-1.01435 l 5.66648,-1.48961 -2.30149,-2.54953 z m -7.53041,-1.17481 c 3.76045,-2.07264 3.86946,-2.27795 2.25775,-4.25238 -1.13588,-1.39154 -2.1418,-1.74442 -3.05511,-1.07175 -0.74891,0.55157 -2.71366,1.61222 -4.36611,2.35698 -3.35853,1.51372 -3.374,1.55931 -1.29037,3.80285 1.7545,1.88914 1.43504,1.93051 6.45384,-0.8357 z m -5.30798,-4.83329 c 4.4834,-2.47111 4.40036,-3.18611 -0.99031,-8.52622 -2.62624,-2.6016 -3.08842,-2.67936 -8.09797,-1.36244 l -5.31277,1.39663 2.67125,2.6582 c 2.43225,2.42038 3.0503,2.53963 6.90794,1.33295 l 4.23669,-1.32525 -3.09917,1.97711 c -3.9418,2.51467 -3.83477,2.31997 -2.465,4.48358 1.36559,2.15702 1.01975,2.19271 6.14934,-0.63456 z m -7.77008,-14.83473 c -1.80335,-2.20921 -4.05502,-2.31887 -8.95136,-0.43597 -2.94422,1.1322 -2.96335,1.19889 -0.8821,3.07532 1.76187,1.58848 2.93554,1.70557 6.83111,0.6815 4.6399,-1.21975 4.68066,-1.26479 3.00235,-3.32085 z m -6.08066,-5.6927 c -1.80646,-1.62868 -3.00572,-1.79479 -6.44001,-0.89198 -4.15052,1.0911 -4.19148,1.14457 -2.48291,3.23766 1.50636,1.84539 2.36227,1.96394 6.44001,0.89198 l 4.70276,-1.23627 -2.21985,-2.00139 z m -4.74544,-3.98235 c 0.13822,-0.19029 -0.47309,-1.12598 -1.35847,-2.0793 -1.15632,-1.24506 -2.55375,-1.48518 -4.96075,-0.85243 -3.50484,0.92136 -3.79012,1.886 -1.33844,4.52581 1.1598,1.24882 2.09783,1.28425 4.43847,0.16768 1.63233,-0.77869 3.08097,-1.57147 3.21919,-1.76176 z m -5.48681,-5.80346 c -0.62465,-2.3762 -3.13424,-3.37662 -5.71349,-2.27762 -3.13554,1.33602 -3.08509,1.24153 -1.69491,3.17458 0.63308,0.88029 2.17059,1.06492 4.27072,0.51284 1.80483,-0.47446 3.21679,-1.10887 3.13768,-1.4098 z m -6.06176,-6.61031 c -1.34499,-1.64769 -2.46186,-1.93777 -4.94628,-1.28466 -3.07196,0.80756 -3.13481,0.93448 -1.47176,2.97184 1.34499,1.64769 2.46186,1.93776 4.94628,1.28465 3.07195,-0.80756 3.13481,-0.93448 1.47176,-2.97183 z m -4.13026,-4.20459 c 0.82832,-1.1928 -3.29052,-2.63343 -5.71038,-1.99729 -3.13416,0.82391 -3.20122,1.0851 -0.84769,3.30187 1.23014,1.15867 2.28275,1.25099 3.96892,0.34811 1.26212,-0.67581 2.42724,-1.41952 2.58915,-1.65269 z m -4.11741,-4.22551 c -0.49066,-1.72251 -2.4179,-2.47243 -5.45337,-2.1219 -3.63494,0.41975 -3.67,0.48105 -1.56887,2.74342 1.44408,1.5549 7.48973,1.01982 7.02224,-0.62152 z m -5.60628,-5.90098 c -1.20213,-1.29439 -7.76019,-1.73958 -7.43558,-0.50478 0.5447,2.07206 3.5215,3.48011 5.9871,2.83195 2.54132,-0.66807 2.72109,-0.95689 1.44848,-2.32717 z m -5.67107,-3.40438 c 1.87894,-1.35127 -0.71163,-3.26429 -3.61329,-2.66825 -1.65776,0.34057 -1.76288,0.24622 -0.51092,-0.45849 1.84759,-1.03996 1.77167,-1.96306 -0.25894,-3.14829 -1.79707,-1.04892 -4.07537,-0.55636 -3.71782,0.80376 0.50366,1.91592 4.836,6.9673 5.7659,6.72285 0.51556,-0.13553 1.56634,-0.69874 2.33507,-1.25158 z m -9.11284,-10.92535 c -1.22091,-1.10076 -2.81328,-1.84538 -3.53858,-1.65471 -1.05568,0.27752 -0.97219,0.77123 0.4185,2.47492 0.9555,1.17054 2.54786,1.91516 3.5386,1.65471 1.69913,-0.44667 1.67537,-0.58709 -0.41852,-2.47492 z m -3.7779,-3.91825 c -0.39618,-0.60671 -1.58263,-1.04641 -2.63656,-0.97712 -1.65786,0.10901 -1.68605,0.29068 -0.20899,1.34741 2.02001,1.44518 3.87354,1.20398 2.84555,-0.37029 z m -4.079,-4.81548 c -1.7065,-1.83746 -3.7108,-2.64627 -4.25352,-1.71645 -0.65326,1.11922 2.80866,4.10665 4.30351,3.71368 1.13716,-0.29894 1.12636,-0.73061 -0.05,-1.99723 z m -7.19098,-6.98493 c -3.75532,-3.7201 -4.06727,-3.47107 -0.96558,0.77084 1.38537,1.89467 2.81377,3.13467 3.17421,2.75556 0.36044,-0.37911 -0.63345,-1.96599 -2.20863,-3.5264 z M 448.8475,235.22286 c -0.13983,-0.53192 -0.93275,-0.78877 -1.76203,-0.57077 -0.82929,0.21801 -1.1244,0.76088 -0.65582,1.20638 0.46859,0.44551 1.2615,0.70235 1.76204,0.57077 0.50053,-0.13158 0.79565,-0.67445 0.65581,-1.20638 z m -4.16495,-4.0647 c -0.84481,-0.90962 -1.83701,-1.52427 -2.20491,-1.36588 -1.89352,0.81527 -2.41,0.36208 -1.24981,-1.09665 1.96634,-2.47231 -0.46278,-4.354 -2.80844,-2.17552 -0.9723,0.90301 -1.86878,1.25782 -1.99217,0.78847 -0.12338,-0.46937 0.53178,-1.47222 1.45592,-2.22858 1.13162,-0.92616 1.30277,-1.72981 0.52417,-2.46126 -0.95125,-0.89362 -1.63831,-0.65075 -3.87758,1.37068 l -2.72149,2.45674 5.92585,3.51925 c 6.1786,3.66935 9.83079,4.29628 6.94846,1.19275 z M 435.66148,221.118 c 0.70848,-0.18935 0.95942,-0.8402 0.55787,-1.44549 -0.77873,-1.17389 -4.2805,-0.0527 -6.63122,2.12324 -0.7834,0.72514 -1.03347,1.86197 -0.55572,2.52628 0.74054,1.02973 1.1984,0.90797 3.1049,-0.82553 1.22993,-1.1184 2.81582,-2.18868 3.52419,-2.3784 z m -4.28076,-2.18988 c 2.34424,-1.61897 2.78874,-4.6621 0.59682,-4.08588 -2.63056,0.69152 -7.9593,4.59504 -7.68696,5.63101 0.46259,1.7597 1.86865,2.23243 3.34343,1.12409 0.7371,-0.55396 2.42312,-1.75512 3.74671,-2.66922 z m -1.011,-6.37295 c 0.16251,-0.23094 -0.39723,-0.91547 -1.24385,-1.52116 -1.33555,-0.9555 -2.00261,-0.78685 -5.03943,1.2741 -4.94996,3.35927 -5.34429,3.89973 -3.70241,5.07438 1.16655,0.83459 2.11434,0.54411 5.54855,-1.70045 2.27793,-1.48882 4.27465,-2.89591 4.43715,-3.12685 z m -7.64796,-1.57353 c 2.65694,-1.62227 3.52106,-2.74828 3.1608,-4.11869 -0.41145,-1.56517 -0.90992,-1.65821 -2.92994,-0.54687 -5.4901,3.02047 -8.12742,5.65073 -7.09931,7.08031 0.5547,0.77133 1.50431,1.0459 2.11021,0.61016 0.60589,-0.43575 2.74711,-1.79695 4.75824,-3.02491 z m -2.60888,-4.75564 c 3.46681,-2.04902 3.57227,-2.28248 2.06981,-4.58166 -1.7457,-2.67142 -3.38001,-2.58267 -8.00174,0.43451 -4.51167,2.94532 -5.33045,4.67717 -3.26348,6.90277 1.28629,1.38499 2.17873,1.53776 3.62446,0.62041 1.0549,-0.66934 3.56182,-2.18856 5.57095,-3.37603 z m -7.00383,-5.67112 c 4.5726,-2.78202 5.82011,-4.62792 3.88931,-5.75489 -0.60308,-0.35201 -12.19446,6.00107 -12.78025,7.00468 -0.59008,1.01098 1.89697,3.34822 2.80103,2.63231 0.53038,-0.42001 3.27084,-2.16695 6.08991,-3.8821 z m -2.53634,-5.06015 c 4.72974,-2.3316 5.03056,-2.68748 4.03397,-4.77211 -0.94356,-1.97368 -1.43092,-2.08226 -3.93576,-0.87681 -5.93975,2.8585 -12.17309,7.24348 -11.88026,8.35743 0.50755,1.93072 1.98782,2.27138 4.3888,1.01003 1.25529,-0.65947 4.58226,-2.33281 7.39325,-3.71854 z m -8.3144,-2.82568 c 2.51872,-1.79922 5.92703,-3.62554 7.57402,-4.05851 2.33326,-0.61337 2.77608,-1.09094 2.00531,-2.16269 -0.54406,-0.75651 -1.03705,-1.5575 -1.09553,-1.77996 -0.25009,-0.95134 -3.82067,0.72181 -8.16894,3.82791 -2.57283,1.83786 -4.90433,3.20938 -5.18112,3.04783 -0.82636,-0.48234 4.80582,-4.8368 8.51546,-6.58366 1.89767,-0.89359 3.32753,-2.09174 3.17747,-2.66256 -0.43454,-1.653 -6.46221,-11.87483 -7.36603,-12.49144 -0.65929,-0.44979 -17.56375,7.4573 -18.17246,8.5002 -0.0926,0.15861 0.33518,1.1826 0.95062,2.27552 1.30523,2.31794 1.57003,2.26985 8.7276,-1.58467 11.78314,-6.34551 9.68003,-3.64189 -2.51163,3.22877 -3.7997,2.14134 -4.27507,3.47583 -1.99381,5.59706 0.98416,0.9151 2.18581,0.45324 7.00454,-2.69226 3.19912,-2.08828 6.84531,-3.91176 8.10263,-4.05216 1.49161,-0.16658 -0.39983,1.48759 -5.44281,4.76006 -4.25086,2.75844 -7.64667,5.32794 -7.54624,5.70998 0.25806,0.98164 5.39634,4.7729 6.18638,4.56459 0.36026,-0.095 2.71581,-1.6448 5.23454,-3.44401 z m -261.96187,59.09832 c 0.34203,-2.33406 1.359,-6.0141 2.25994,-8.17789 1.1233,-2.69785 1.24293,-4.16479 0.38068,-4.66807 -0.86224,-0.50327 -1.89555,1.1768 -3.28819,5.34627 -2.34234,7.01284 -2.79076,14.07626 -1.03734,16.33964 1.02489,1.32296 1.20274,1.08649 1.1388,-1.51422 -0.0417,-1.69511 0.20408,-4.99169 0.54611,-7.32573 z m 3.48225,6.88054 c -0.12674,-0.48213 0.69983,-0.8778 1.83682,-0.87926 1.20154,-0.002 1.94208,-0.4788 1.76835,-1.13968 -0.1644,-0.62536 0.23125,-0.97505 0.87921,-0.77708 0.64795,0.19796 1.83282,-0.1622 2.63304,-0.80035 0.80021,-0.63816 1.88026,-1.31228 2.40011,-1.49805 1.06152,-0.37935 0.82214,-1.31149 -1.07861,-4.20016 -1.77037,-2.6905 -2.69449,-2.2157 -3.22286,1.65586 -0.24407,1.78847 -0.71274,3.09476 -1.04147,2.90288 -0.32874,-0.19188 -0.12667,-2.01208 0.44904,-4.04491 1.0038,-3.54445 0.48502,-6.10071 -1.15085,-5.67067 -0.42582,0.11194 -1.11872,2.8699 -1.53978,6.12881 -0.42107,3.2589 -1.02493,5.77389 -1.34194,5.58887 -0.317,-0.18503 -0.0941,-3.10833 0.4954,-6.4962 1.15978,-6.66581 1.11198,-7.98841 -0.27555,-7.62365 -1.0311,0.27105 -4.35427,15.17436 -3.82909,17.17215 0.19096,0.72642 1.00002,1.14915 1.79792,0.9394 0.79789,-0.20975 1.34701,-0.77583 1.22026,-1.25796 z m 246.10924,-86.44415 c 2.25206,-1.16795 5.7239,-2.56321 7.71521,-3.10059 3.62397,-0.978 4.15986,-2.26868 1.83734,-4.42522 -0.81847,-0.75997 -3.66809,-0.28788 -10.63619,1.76208 -9.51584,2.79949 -9.51797,2.80076 -8.62931,5.15145 1.45271,3.8427 2.40576,4.71117 4.05623,3.6963 0.85913,-0.52828 3.40466,-1.91608 5.65672,-3.08402 z m -21.14849,-5.9683 C 360.86655,152.14579 352.85373,135.62879 346.08979,119.54725 335.32833,93.961432 329.72874,83.621632 315.94412,63.88246 311.58213,57.636217 304.23403,46.539801 299.61502,39.223751 294.996,31.907701 290.1047,24.990433 288.74544,23.852037 c -2.80581,-2.349917 -7.2649,-2.422516 -9.74849,-0.158719 -6.28773,5.731263 -26.91568,36.827626 -28.21486,42.533524 -1.19069,5.22941 0.0689,7.320999 4.92662,8.180799 5.66972,1.003531 8.38612,2.753741 13.83099,8.911511 10.24119,11.58207 24.22759,24.420308 75.30715,69.125098 23.08815,20.20673 29.00918,25.16398 29.35289,24.5751 0.15888,-0.2722 -2.29826,-5.12495 -5.4603,-10.78389 z M 183.21,217.88223 c 17.34439,-10.20052 27.09063,-20.97596 38.89943,-43.00716 3.89475,-7.26628 9.4356,-16.4537 12.31301,-20.41649 7.74899,-10.67201 22.89032,-45.86931 26.12076,-60.719908 1.00539,-4.62186 -0.005,-11.06091 -2.02972,-12.93956 -2.03505,-1.8879 -16.89515,-0.98271 -29.09898,1.77255 -13.37797,3.02035 -24.85034,8.22405 -31.86769,14.45474 -13.6766,12.143448 -25.34333,28.418938 -48.34078,67.437078 -16.14312,27.3889 -20.61323,36.75571 -22.48342,47.11237 -1.17483,6.50598 -0.56238,9.90606 2.4985,13.87074 5.43773,7.04335 10.88249,7.33403 30.55687,1.63138 12.74905,-3.69533 16.74768,-5.26457 23.43202,-9.19574 z m 205.79545,-53.782 8.74606,-2.29917 -1.4223,-2.91113 c -0.78226,-1.60113 -1.54883,-2.96846 -1.70349,-3.03852 -0.15467,-0.07 -4.3446,1.23011 -9.31096,2.88927 l -9.02975,3.01665 0.54784,3.35617 c 0.45427,2.78294 0.79372,3.17937 1.9872,2.32104 0.79164,-0.56932 5.37507,-2.06976 10.1854,-3.33431 z m 1.26364,-9.3895 c 3.01719,-1.28561 3.34776,-3.25795 0.92371,-5.51136 -0.9783,-0.90945 -2.59925,-0.50203 -9.68405,2.4341 -8.04922,3.33581 -8.47594,3.65238 -7.89613,5.85796 0.59274,2.2548 0.82836,2.26818 7.15447,0.40615 3.59785,-1.05899 7.87375,-2.49308 9.502,-3.18685 z m -0.1528,-7.84035 c 0.0694,-0.0857 -0.41643,-1.28832 -1.07961,-2.67232 -0.95204,-1.9868 -1.61687,-2.31254 -3.15902,-1.54778 -1.07425,0.53274 -5.25341,2.13182 -9.28699,3.55351 -6.12121,2.1575 -7.26032,2.86442 -6.88938,4.27546 0.24443,0.92982 0.83547,1.91882 1.31342,2.1978 0.66036,0.38544 18.47245,-5.02924 19.10158,-5.80667 z m -10.44123,-4.66653 c 6.37122,-2.30417 6.8043,-2.63247 6.25072,-4.73831 -0.78285,-2.97795 -1.86499,-3.19519 -5.56036,-1.11623 -1.68747,0.94934 -5.4397,2.88186 -8.3383,4.29448 -4.31858,2.10464 -5.17797,2.91915 -4.75952,4.51095 0.42007,1.59796 0.95869,1.72812 3.03631,0.73368 1.3891,-0.66488 5.60612,-2.32294 9.37115,-3.68457 z m -3.08748,-6.04433 c 7.02433,-2.99431 7.22306,-3.16823 6.30441,-5.51736 -0.89349,-2.28476 -1.22563,-2.33776 -5.72081,-0.913 -2.62474,0.83192 -6.93455,2.5795 -9.57736,3.88349 -4.09179,2.01895 -4.71972,2.69572 -4.2299,4.55899 0.75112,2.85726 1.92951,3.4667 4.15793,2.15042 0.99702,-0.58892 5.07659,-2.46206 9.06573,-4.16254 z m -3.51914,-6.30421 c 4.09629,-1.72397 7.5642,-3.28883 7.70646,-3.47748 0.14227,-0.18865 -0.91147,-2.74771 -2.34164,-5.68679 -4.43791,-9.12021 -3.47156,-8.6339 -10.47786,-5.2731 -3.39646,1.62921 -7.73705,3.65896 -9.64576,4.51053 -3.55046,1.58405 -3.99333,3.51759 -1.36556,5.96193 0.98867,0.91965 1.95473,0.7127 5.31273,-1.13813 2.25737,-1.24419 6.4266,-2.82168 9.26496,-3.50551 l 5.16064,-1.24336 -3.67345,1.75918 c -2.0204,0.96754 -5.55729,2.55786 -7.85976,3.53403 -5.96365,2.5284 -6.66711,3.54193 -4.88022,7.03138 1.2564,2.45349 1.81393,2.74577 3.42611,1.79607 1.05905,-0.62384 5.27705,-2.54478 9.37335,-4.26875 z m -9.27299,-14.525 c 10.55823,-3.79099 10.58146,-3.82057 7.19402,-9.16218 -1.18432,-1.86753 -1.18951,-1.86639 -6.69064,1.45764 -3.02798,1.82963 -7.23151,4.28283 -9.34121,5.45153 -2.72589,1.51006 -3.70376,2.62717 -3.37948,3.86072 0.64475,2.45263 1.89798,2.93653 4.25158,1.64167 1.12021,-0.6163 4.70479,-2.07852 7.96573,-3.24938 z m -0.99507,-8.8017 c 6.38243,-2.95203 6.44152,-3.01513 5.38842,-5.75342 -0.58562,-1.522748 -1.21799,-2.858078 -1.40525,-2.967378 -0.18726,-0.1093 -4.63377,1.86898 -9.88112,4.396178 -5.24736,2.5272 -9.57372,4.60501 -9.61416,4.61736 -0.0403,0.0127 0.48045,1.32255 1.15751,2.91155 1.17743,2.76334 1.37619,2.82145 4.5662,1.33479 1.83436,-0.85488 6.23914,-2.89746 9.7884,-4.53908 z m -6.45448,-5.86992 c 10.4034,-4.624288 10.59554,-4.937828 6.75296,-11.019428 -0.89336,-1.4139 -2.17983,-3.6606 -2.85881,-4.99268 l -1.23454,-2.42195 -4.74437,2.61956 c -2.6094,1.44077 -7.05504,3.74788 -9.87921,5.12694 -4.77163,2.33001 -5.05798,2.66811 -4.04831,4.78008 0.59758,1.24999 1.5152,2.40369 2.03917,2.56377 0.52396,0.16008 4.49745,-1.38774 8.82997,-3.43959 11.60795,-5.49745 12.91845,-4.72467 1.76708,1.04203 l -9.60792,4.96854 1.13087,2.654088 c 0.62199,1.45974 1.40826,2.58265 1.74729,2.49537 0.33907,-0.0871 4.88664,-2.05681 10.10582,-4.37673 z m -6.5777,-14.849148 c 6.07981,-2.91043 8.0123,-4.26129 7.70481,-5.38587 -1.03118,-3.77116 -2.20859,-3.68269 -11.99824,0.90166 -5.18211,2.42669 -9.52796,4.61465 -9.65744,4.86212 -0.12949,0.24748 0.39249,1.33179 1.15987,2.4096 1.67265,2.34921 2.38464,2.19404 12.791,-2.78751 z m -3.24667,-6.90195 c 4.55552,-1.94067 7.43627,-3.65183 7.05718,-4.191958 -0.35232,-0.50196 -3.52205,-5.170276 -7.04387,-10.37401 l -6.40329,-9.461343 -7.20414,2.502465 c -9.4503,3.282691 -11.38988,4.291847 -10.99519,5.720732 0.77789,2.81629 2.36235,3.135139 6.0154,1.210585 1.98542,-1.045979 5.79656,-2.433314 8.46921,-3.082965 4.81078,-1.169332 4.78229,-1.139995 -2.84709,2.935991 -4.23856,2.264444 -7.8224,4.28031 -7.96408,4.479703 -0.14167,0.199382 0.25518,1.172451 0.88188,2.162374 0.90505,1.429592 1.53307,1.519488 3.05271,0.436997 1.05229,-0.749567 5.11052,-2.475186 9.01827,-3.834711 7.38824,-2.570392 6.32436,-1.725216 -4.54049,3.607347 -4.6702,2.292146 -5.21586,2.85682 -4.47067,4.626443 0.95921,2.27785 1.9563,2.10671 13.6612,-2.344809 8.72328,-3.31757 8.62233,-2.298706 -0.14967,1.51061 -11.93333,5.182119 -11.64111,4.959359 -9.67126,7.372539 1.28567,1.57504 2.21657,1.85155 3.58628,1.06524 1.01743,-0.58408 5.31386,-2.53763 9.54762,-4.34123 z m -7.55794,-25.320345 c 0.16375,-0.256437 -0.84603,-1.915165 -2.24393,-3.686047 -3.21772,-4.076243 -6.19379,-8.16148 -6.80237,-9.337568 -0.25904,-0.500592 -3.42246,-4.932349 -7.02984,-9.848346 -7.395,-10.077649 -15.56064,-18.907446 -19.38534,-20.9620518 -3.08254,-1.655931 -8.09146,-0.551396 -11.51518,2.5392488 -2.34337,2.115402 -2.356,2.272115 -0.29789,3.697227 1.73283,1.199875 3.47269,1.167549 8.98065,-0.166863 6.63642,-1.607803 6.42834,-1.371503 -1.68548,1.914048 -3.27669,1.326839 -3.7204,1.839365 -2.88177,3.328687 0.87358,1.551373 1.92921,1.530263 8.89146,-0.177819 l 7.90019,-1.93819 -6.76751,2.772405 c -5.71919,2.342944 -6.69248,3.057827 -6.28312,4.61502 0.42154,1.603547 1.27246,1.651004 6.5585,0.365783 6.1537,-1.49618 6.13414,-1.347884 -0.19419,1.472116 -2.96757,1.322399 -3.39172,1.896716 -2.66889,3.613889 0.80744,1.918205 1.29416,1.912048 8.05076,-0.101746 4.99025,-1.487339 6.67125,-1.714146 5.49209,-0.740963 -0.93461,0.771332 -3.21274,1.840111 -5.06251,2.375062 -4.59822,1.329792 -5.72911,2.773939 -4.26138,5.441751 1.15705,2.103096 1.51229,2.108909 8.10818,0.132793 4.84404,-1.451263 6.24368,-1.628113 4.70035,-0.593907 -1.20878,0.810011 -3.49027,1.866023 -5.06997,2.346687 -4.39042,1.335912 -5.23922,2.70497 -3.332,5.374306 1.46431,2.049437 1.89872,2.10685 4.59409,0.607155 4.57037,-2.542966 12.36107,-5.621056 11.81399,-4.667675 -0.26819,0.467353 -3.46687,2.271819 -7.10817,4.009923 -3.64131,1.738112 -6.75035,3.382571 -6.90897,3.654351 -0.15864,0.271782 0.30389,1.570781 1.02785,2.886661 1.03404,1.879522 1.69407,2.15332 3.07833,1.276965 3.03338,-1.920411 11.81908,-5.307369 11.99834,-4.625468 0.094,0.357707 -2.66982,1.966687 -6.1419,3.575505 -5.78456,2.680331 -6.23094,3.096476 -5.33406,4.972545 0.94719,1.98128 1.27772,1.955239 10.23039,-0.805909 5.08838,-1.569332 9.38556,-3.063138 9.5493,-3.319575 z M 295.12135,13.290691 c 1.67237,-0.668997 4.50125,-1.412658 6.28641,-1.652581 1.78517,-0.239922 0.41687,0.30744 -3.04066,1.216359 -3.45753,0.90892 -4.91811,1.105219 -3.24575,0.436222 z m -49.29879,59.278464 c -0.12958,-0.492922 -1.04955,-0.895041 -2.04437,-0.893587 -1.53112,0.0022 -1.5174,-0.09647 0.0895,-0.643003 1.21907,-0.414664 2.16763,-2.171012 2.65117,-4.909041 0.71397,-4.042731 7.99158,-16.224078 20.91422,-35.006424 2.85529,-4.15003 6.69139,-10.03362 8.52466,-13.074641 1.83327,-3.041024 5.62745,-7.590061 8.43153,-10.1089718 l 5.09831,-4.57984 -3.69751,0.345564 c -10.11242,0.945089 -16.33619,4.702097 -26.08017,15.7434188 -11.74772,13.311842 -21.75916,28.986451 -26.41052,41.350188 -2.94962,7.840311 -2.96492,8.033323 -0.6406,8.07865 l 2.3812,0.04644 -2.15072,0.668472 c -2.04701,0.636246 -2.2251,1.042989 -1.71203,3.91054 0.18855,1.053925 3.4741,1.06348 14.12458,0.04109 0.41601,-0.03998 0.65038,-0.475902 0.52079,-0.968834 z"
     id="path2987"
     inkscape:connector-curvature="0" />
</svg>
